<?xml version="1.0" encoding="UTF-8"?>
<svg width="936px" height="644px" viewBox="0 0 936 644" version="1.1" xmlns="http://www.w3.org/2000/svg" xmlns:xlink="http://www.w3.org/1999/xlink">
    <!-- Generator: Sketch 52.4 (67378) - http://www.bohemiancoding.com/sketch -->
    <title>40413</title>
    <desc>Created with Sketch.</desc>
    <defs>
        <path d="M1.16,30.625 C0.95,30.423 0.74,30.219 0.531,30.015 C12.248,25.398 23.485,19.701 33.537,12.367 C33.815,12.43 34.143,12.51 34.512,12.61 C34.437,12.667 34.362,12.723 34.286,12.778 C24.214,20.202 12.932,25.962 1.16,30.625 Z M42.34,5.284 C42.109,5.182 41.88,5.083 41.654,4.989 C42.633,3.877 43.564,2.722 44.444,1.53 C44.984,1.161 45.521,0.788 46.056,0.411 C44.912,2.106 43.672,3.735 42.34,5.284 Z" id="path-1"></path>
    </defs>
    <g id="40413" stroke="none" stroke-width="1" fill="none" fill-rule="evenodd">
        <path d="M812.733694,611 L132.215519,611 C112.264833,611 95.941908,601.133514 95.941908,589.075474 L95.941908,580.305265 C95.941908,574.905681 99.221692,569.949993 104.626336,566.118513 L85.2736107,566.118513 C65.3229248,566.118513 49,556.252028 49,544.193987 C49,532.134949 65.3229248,522.269461 85.2736107,522.269461 L140.814952,522.269461 C129.376706,518.569654 121.547221,511.273781 121.547221,502.923528 C121.547221,490.865488 137.870146,481 157.820832,481 L550.776949,481 L550.776949,506.143528 L560.337319,506.143528 L560.337319,481 L650.2054,481 L650.2054,570.072689 L659.76577,570.072689 L659.76577,481 L847.726389,481 C867.677075,481 884,490.865488 884,502.923528 C884,514.982566 867.677075,524.849052 847.726389,524.849052 L773.045308,524.552788 C780.778799,525.870514 783.899593,529.37381 785.847465,533.791833 C788.853267,540.6069 788.580285,548.839445 782.43369,554.249004 C779.013915,557.258527 773.957248,558.791718 770.724461,558.864537 L812.733694,558.380739 C832.68338,558.380739 849.006305,568.247224 849.006305,580.305265 L849.006305,589.075474 C849.006305,601.133514 832.68338,611 812.733694,611" id="Fill-3" fill="#ECECEC"></path>
        <polyline id="Fill-4" fill="#C8D6A1" points="347 159 362.132329 168.153409 399.736855 238.564095 471 265.546885 470.339673 282 392.478274 270.153116 347 159"></polyline>
        <polyline id="Fill-5" fill="#EAC5B0" points="470.667131 265.334269 486 264 502 274.667057 498.000253 278.000702 486.333566 275.061457 482.667385 282.000468 490.734808 286.840742 481.333122 290 470 282.000468 470.667131 265.334269"></polyline>
        <polyline id="Fill-6" fill="#3A3029" points="278.320748 556.153922 278 565.307845 296.345586 575 306 566.116681 296.988081 556.693146 278.642495 547 278.320748 556.153922"></polyline>
        <polyline id="Fill-7" fill="#2E4661" points="306.202281 327 271 333.343959 292.038559 426.906856 278.185874 552.798352 296.589112 557 344.866984 405.057886 345 359.647496 341.403563 332.767144 306.202281 327"></polyline>
        <polyline id="Fill-8" fill="#2E4661" points="393.8107 282.747358 395 400.813037 372.3155 553 355.060673 552.971952 344.386905 412.495993 321 272 393.8107 282.747358"></polyline>
        <polyline id="Fill-9" fill="#3A3029" points="355.014972 551 355 559.985404 373.651695 569 383 560.029192 373.681638 551.029192 355.014972 551"></polyline>
        <path d="M259.852003,337.740726 C260.089315,342.979494 267.572136,377.061504 265.973037,378 C273.833353,375.246545 281.807819,372.819262 289.869399,370.723155 C311.08224,365.206239 332.891863,361.982536 354.793608,361.104072 C364.712626,360.705861 375.158335,360.053516 384.967209,361.835458 C389.775519,362.70892 394.483699,364.043625 399.213907,365.256266 C400.428501,365.568431 412.971963,367.841632 413,368.034734 C410.756055,352.936756 411.393892,337.816766 410.376557,322.581715 C409.348207,307.177575 407.444709,291.832466 404.677077,276.64444 C400.339384,252.849866 388.323614,233.106433 378.72001,211.039773 C373.952753,200.083983 369.523941,188.905076 363.363856,178.629646 C358.539524,170.584395 350.12448,158.923233 340.727147,155.869619 C337.546973,154.836073 334.122478,154.954135 330.781093,155.083203 C320.642787,155.472409 310.505483,155.863616 300.367177,156.253822 C296.671326,156.395897 292.829284,156.576993 289.569005,158.321915 C284.683593,160.936296 282.191322,166.416192 280.03349,171.517888 C270.358793,194.390975 264.84756,218.719831 262.517502,243.584971 C261.301906,256.566831 260.242516,269.5657 259.614692,282.582578 C258.912771,297.109255 258.740545,311.664946 259.475509,326.183618 C259.557617,327.796471 259.60568,332.326865 259.852003,337.740726" id="Fill-10" fill="#C8D6A1"></path>
        <path d="M320.432991,217.580471 C321.249947,224.100575 320.874804,230.706839 320.498666,237.259002 C318.208999,277.161078 308.204519,326.097925 305.914852,366 C331.321097,361.268216 362.748538,360.707174 397,364.864893 C395.030747,350.106495 390.635503,321.146733 388.66625,306.387334 C387.403501,296.926771 386.134781,287.431143 383.764513,278.223049 C379.941436,263.370476 373.343097,249.592899 366.793516,235.947568 C354.692414,210.734762 342.590317,185.520955 330.488219,160.308149 C329.841421,158.959646 329.161785,157.567061 328.073173,156.638337 C326.769626,155.527274 325.071033,155.23974 323.452047,155.02935 C315.630761,154.01146 306.829326,153.299138 299.160286,155.133543 C297.764196,163.376846 305.860123,176.995127 309.0165,184.360801 C313.607774,195.080702 318.942369,205.668357 320.432991,217.580471" id="Fill-11" fill="#FFFFF1"></path>
        <path d="M347.773942,103.50465 C349.443205,108.685468 349.602708,114.282925 348.72795,119.65596 C348.495216,121.084006 348.251448,122.739492 349.218496,123.8143 C350.25376,124.964587 348.772089,126.702596 349.949802,125.700247 C351.127515,124.697897 355.14819,121.200745 355.603626,119.721374 C356.672997,116.251394 357.410322,112.680776 357.804564,109.071916 C358.146643,105.933033 358.188776,102.586836 356.670991,99.8213185 C355.770151,98.1809275 354.385787,96.8716339 353.019479,95.596557 C351.038233,93.7468401 348.989775,91.8709574 346.485882,90.8384169 C342.17128,89.0601526 339.082542,90.0987314 342.389969,94.0678736 C344.759439,96.9128952 346.629334,99.9561727 347.773942,103.50465" id="Fill-12" fill="#CCD2D9"></path>
        <path d="M306.922887,157.452754 C312.960382,159.301836 318.997878,161.149924 325.036373,163 C327.08288,157.910802 328.761295,152.656667 330.047614,147.306153 C335.60299,147.503878 342.272641,147.089549 345.279386,141.890062 C346.22662,140.250628 346.648725,138.342924 347.054826,136.475958 C348.737242,128.756711 350.419659,121.036471 352.101075,113.317225 C352.683219,110.646439 353.268364,107.892191 352.868265,105.219418 C352.166091,100.530639 348.601209,97.0828614 344.914295,94.6137757 C335.503965,88.3123905 323.480988,85.9923441 312.741328,89.9508301 C309.88262,91.0050354 307.071924,92.5391474 305.03742,94.9913421 C301.901644,98.7739617 301.081441,104.075789 300.400272,109.048737 C299.770116,113.63915 299.14196,118.229563 298.512805,122.819976 C297.788625,128.099944 297.316508,134.251297 300.806373,137.843146 C302.659832,139.749856 305.394509,140.5964 306.858871,142.870741 C309.440511,146.880894 306.696831,152.493717 306.922887,157.452754" id="Fill-13" fill="#EAC5B0"></path>
        <path d="M328.218191,140.546751 C325.037579,141.826698 321.942821,141.291987 319.029755,139.722446 C317.791852,139.055293 318.816117,136.975751 320.056017,137.643893 C322.469928,138.944595 324.905802,139.426922 327.553317,138.361453 C328.88606,137.824766 329.542947,140.014017 328.218191,140.546751 Z M349.877503,133.721031 C350.091142,132.277014 350.343714,127.968686 347.623322,130.147065 C346.911527,130.716369 346.567111,131.658291 346.339496,132.56562 C346.111882,133.472949 345.955147,134.422777 345.482947,135.22435 C344.397785,137.06174 341.998849,137.50552 340.03817,137.062728 C339.258491,136.887786 338.487796,136.596215 337.878827,136.063481 C337.28683,135.544583 336.880518,134.832953 336.48419,134.134172 C335.523817,132.439108 334.563443,130.743056 333.60307,129.047003 C331.951867,126.131296 327.420542,126.307227 324.415632,126.080889 C320.952498,125.819958 317.366572,126.130308 314.149022,127.756185 C313.824572,127.920255 313.504115,128.097175 313.182659,128.274094 C312.398987,128.703049 311.612319,129.127062 310.762758,129.339563 C307.893618,130.056135 304.945612,128.080372 303.615864,125.355421 C303.005897,124.106115 302.517724,122.559307 301.25686,122.111573 C300.270531,121.7607 299.129463,122.276632 298.408684,123.110821 C297.688904,123.945009 297.312541,125.038153 297.01205,126.115482 C295.916905,130.035379 295.606431,134.245858 296.601745,138.128197 C298.762086,146.549155 305.85607,148.994396 313.220595,150.337598 C316.131664,150.869344 319.042733,151.400102 321.953802,151.93086 C327.275788,152.902433 332.919228,153.841389 338.022584,151.715394 C342.524958,149.840446 345.828362,145.752525 347.797027,141.163498 C348.813306,138.794362 349.500143,136.274005 349.877503,133.721031 Z" id="Fill-14" fill="#CCD2D9"></path>
        <path d="M360.00821,91.6113246 C360.915715,89.8388172 361.698013,88.0035399 362.344084,86.1204377 C360.414884,86.3755033 358.421578,86.1353829 356.607569,85.4309632 C356.836949,84.3150508 357.06633,83.1991384 357.296712,82.0832259 C357.483021,81.1546274 345.008329,77.8856018 344.001659,77.5906821 C334.57302,74.81485 325.956728,72.2482514 316.207557,75.5680908 C307.879743,78.403704 301.757588,83.9493902 298.836743,92.2161092 C296.045113,100.113182 296.490852,111.277288 299.798338,119 C300.225046,116.831942 300.044747,111.47058 300.989314,109.521719 C301.735552,107.528022 302.868431,105.690752 304.239705,104.062715 C306.979249,100.810628 310.678385,98.363591 314.666,96.8969633 C321.024547,94.5605217 327.951036,94.0653355 334.669179,94.5156859 C340.825391,94.9291713 348.275749,95.6784268 353.854002,98.4811604 C356.535449,99.8292224 356.857984,100.636266 359.176831,98.1414049 C359.585509,97.7010181 363.223543,92.3296932 362.989154,92.2768866 C361.995506,92.0547005 361.001858,91.8325143 360.00821,91.6113246" id="Fill-15" fill="#CCD2D9"></path>
        <path d="M735.48828,552.120736 L736,565.4899 L727.264132,574.736331 L720.222129,574.997061 C717.202674,575.107947 715.120187,572.060101 716.368458,569.358896 L726.241709,548 L735.48828,552.120736" id="Fill-16" fill="#3B455A"></path>
        <polyline id="Fill-17" fill="#3B455A" points="754 391 746.113025 485.04895 738.290252 556.22827 717.694031 557 709.836148 485.265154 700 393.024915 754 391"></polyline>
        <path d="M787.341811,543.015633 L788,556.347256 L779.338437,565.663245 L772.277957,565.99514 C769.250287,566.137666 767.128776,563.118715 768.352293,560.410729 L778.023079,539 L787.341811,543.015633" id="Fill-18" fill="#3B455A"></path>
        <polyline id="Fill-19" fill="#3B455A" points="805 383 794.277279 477.033077 791.038584 548.012291 770.442208 549 757.726289 478.29343 751 385.589615 805 383"></polyline>
        <path d="M696.36036,108.052229 C697.478734,116.318083 700.664583,124.286419 705.537287,131 C703.956104,123.370976 702.911115,115.555877 703.500144,107.780581 C704.089174,100.007275 706.39637,92.2339687 711,86 C710.464785,86.7253892 704.075476,85.873629 702.599966,86.5821024 C700.553039,87.5642137 699.362259,89.5135105 698.363257,91.5473863 C695.897551,96.5693879 695.61967,102.578476 696.36036,108.052229" id="Fill-20" fill="#9EA6AD"></path>
        <path d="M751.368959,162.751927 C744.21645,164.836815 737.857549,166.435865 730.435816,167 C729.902392,162.22694 728.860657,157.510093 727.333717,152.955862 C726.312074,149.906323 723.006048,150.096041 720.381117,149.672438 C717.976187,149.284972 715.718927,148.378542 713.840389,146.801576 C712.417924,145.60806 711.274728,144.119427 710.22998,142.585624 C706.987241,137.821598 705.397013,132.101957 703.664137,126.65836 C700.189344,115.736034 695.169529,103.041 703.698293,93.1626233 C708.829615,87.2442301 716.512534,83.6004432 724.084951,82.0184574 C729.736639,80.8369871 735.655541,80.5348439 741.262022,81.9140624 C746.868504,83.2932809 752.148502,86.464279 755.403295,91.2293083 C759.19955,96.7883419 759.457723,103.161456 759.579276,109.638964 C759.734983,117.955431 763.10932,125.03823 758.87407,132.911018 C757.353158,135.738717 755.396263,138.302418 753.596082,140.961479 C751.638183,143.853421 750.386494,148.03424 750.365398,151.546529 C750.358366,152.648699 752.08421,162.541129 751.368959,162.751927" id="Fill-21" fill="#B77858"></path>
        <path d="M718.634122,85.7017877 C714.918849,86.081728 711.261533,87.0008409 707.516282,86.9958019 C703.77103,86.9917707 699.784956,85.9245114 697,82.9263087 C707.766098,79.0523286 718.280381,69.6082422 729.513137,69.0146484 C738.46057,68.5419906 750.803511,79.6076259 756.573276,87.733511 C762.186157,95.6427191 761.755473,107.52568 759.165374,117 C757.910295,113.243932 758.304006,109.095831 757.053924,105.371005 C755.459094,100.622255 751.320132,96.8913824 747.705785,94.1683089 C739.124083,87.703277 728.615796,84.6818949 718.634122,85.7017877" id="Fill-22" fill="#9EA6AD"></path>
        <path d="M725.841224,128.108402 C721.027014,127.668545 715.434021,128.473474 712.869081,132.264902 C711.089852,134.897155 711.265994,138.238887 711.07105,141.356262 C710.876107,144.473637 709.94592,147.973795 707,149.439001 C709.392756,150.353155 712.176389,150.094358 714.493939,149.066057 C716.812478,148.037756 718.6966,146.299977 720.168076,144.342762 C721.468358,142.612855 722.545989,140.630055 724.447924,139.481704 C725.845182,138.639383 727.533372,138.345161 729.15823,137.993866 C730.783087,137.643555 732.461381,137.181065 733.654791,136.101596 C738.42546,131.777812 729.235415,128.418369 725.841224,128.108402" id="Fill-23" fill="#9EA6AD"></path>
        <path d="M740.693007,125.276125 C745.026145,123.111313 750.5361,121.839772 754.30211,124.497631 C756.916047,126.341065 757.962216,129.567824 759.273639,132.446256 C760.585062,135.325686 762.719959,138.299933 766,138.616321 C764.097695,140.349968 761.407546,141.116485 758.871799,140.985738 C756.337042,140.853993 753.948768,139.89385 751.867318,138.576398 C750.027367,137.411651 748.303217,135.927522 746.112894,135.531288 C744.503556,135.24085 742.822955,135.5772 741.178975,135.8357 C739.535985,136.0942 737.801938,136.266866 736.297514,135.677007 C730.279816,133.318569 737.638629,126.801175 740.693007,125.276125" id="Fill-24" fill="#9EA6AD"></path>
        <path d="M813.88124,207.784543 C801.738698,173.125442 781.033531,154.625085 768.889991,152.724643 C768.688164,152.321398 768.578259,152.104804 768.578259,152.104804 L768.127647,152.163693 C767.981773,152.05889 767.894848,152 767.894848,152 L767.797931,152.206613 L721.379911,158.253291 C721.379911,158.253291 719.792278,159.884237 717.318409,162.868648 C717.31741,162.871643 705.483602,181.534696 707.454904,207.784543 C709.425207,234.036386 710.082641,300.979036 700.884563,327.229881 C691.687485,353.482723 672.050398,397.783769 688.110565,400.572547 C709.732942,404.408364 759.591,410.99503 801.489913,399.710161 L836.396847,388.234649 C836.396847,388.234649 836.38186,388.130844 836.353884,387.940201 C845.89067,366.094108 827.611414,246.973162 813.88124,207.784543" id="Fill-25" fill="#D1E7F5"></path>
        <polyline id="Fill-26" fill="#D1E7F5" points="735 166.537522 721.842632 158 704.079685 169.821492 660 270.29818 668.55279 290 691.578684 282.119671 723.815737 232.209924 735 166.537522"></polyline>
        <path d="M767.136593,165.62189 C723.920982,183.572394 697.309196,166.73159 693.674741,164.1927 C693.674741,164.1927 693.556086,163.895245 693.458369,164.039466 C693.31678,163.938311 693.3098,164.258802 693.3098,164.258802 C690.790111,167.916406 671.738389,193.053922 625,191.445457 C625,191.445457 632.731567,273.977914 664.920172,302.371419 C699.300418,332.696884 724.863248,339.111713 724.96595,338.99854 C725.10056,339.068647 747.045886,324.233917 768.431835,283.564603 C788.438785,245.516305 767.136593,165.62189 767.136593,165.62189" id="Fill-27" fill="#3B455A"></path>
        <path d="M762.252827,175.216944 C722.923308,191.263272 698.790012,176.411172 695.492567,174.171246 C695.492567,174.171246 695.38665,173.906083 695.297718,174.035674 C695.168818,173.945957 695.161824,174.23006 695.161824,174.23006 C692.861606,177.480795 675.471084,199.826231 633,198.541289 C633,198.541289 639.778746,271.694283 668.94714,296.774085 C700.101995,323.559501 723.641751,331.09969 723.734679,330.999008 C723.856585,331.060813 743.518347,315.911652 763.076189,279.786729 C781.373009,245.991449 762.252827,175.216944 762.252827,175.216944" id="Fill-28" fill="#2E4661"></path>
        <path d="M633.693614,207 C633.643655,207 633.597693,206.998992 633.547734,206.998992 C632.432646,199.538298 632,194.820922 632,194.820922 C633.18503,194.857217 634.350077,194.874356 635.49514,194.874356 C675.428468,194.874356 691.922972,173.428895 694.160142,170.232895 C694.160142,170.232895 694.165138,170.018148 694.250068,170.018148 C694.263057,170.018148 694.278045,170.023189 694.296031,170.036295 C694.313017,170.010082 694.331002,170 694.348987,170 C694.421928,170 694.490871,170.172403 694.490871,170.172403 C696.660096,171.663533 707.847943,178.677593 726.45372,178.676585 C736.123808,178.676585 747.799255,176.781166 761.248251,171.231014 C761.248251,171.231014 762.470252,175.807243 764,183.194338 C763.964029,183.208453 763.92606,183.223576 763.889091,183.23769 C762.75302,178.076705 761.93469,175.01278 761.93469,175.01278 C748.485694,180.562931 736.810246,182.45835 727.140158,182.45835 C708.534381,182.459359 697.346535,175.445298 695.177309,173.955176 C695.177309,173.955176 695.108366,173.781765 695.035426,173.781765 C695.01744,173.781765 694.999455,173.791847 694.982469,173.81806 C694.964484,173.804954 694.949496,173.799913 694.936506,173.799913 C694.852575,173.799913 694.84658,174.01466 694.84658,174.01466 C692.61041,177.21066 676.114906,198.656121 636.182578,198.656121 C635.036516,198.656121 633.871469,198.638982 632.687438,198.602687 C632.687438,198.602687 632.976201,201.762391 633.693614,207" id="Fill-29" fill="#384155"></path>
        <path d="M634.980329,207 C634.659087,207 634.328866,206.998999 634.00463,206.995994 C633.28832,201.793427 633,198.654862 633,198.654862 C634.182211,198.690914 635.345468,198.707939 636.489768,198.707939 C676.360722,198.707939 692.830872,177.405954 695.063606,174.231336 C695.063606,174.231336 695.069592,174.018026 695.153394,174.018026 C695.166363,174.018026 695.181328,174.023034 695.199286,174.036052 C695.216246,174.010015 695.234203,174 695.252161,174 C695.324989,174 695.393827,174.172251 695.393827,174.172251 C697.559718,175.652403 708.730369,182.619538 727.307549,182.618536 C736.962775,182.618536 748.620277,180.735798 762.048603,175.222779 C762.048603,175.222779 762.865676,178.266205 764,183.392662 C750.976719,188.404953 739.61452,190.147487 730.101958,190.147487 C710.649841,190.147487 698.947445,182.853878 696.679793,181.302622 C696.679793,181.302622 696.607963,181.123361 696.531144,181.123361 C696.512189,181.123361 696.493234,181.134377 696.475276,181.161417 C696.457318,181.148398 696.441356,181.142389 696.427389,181.142389 C696.338598,181.142389 696.332612,181.366715 696.332612,181.366715 C693.994128,184.691551 676.743818,207.002003 634.980329,207" id="Fill-30" fill="#2B425B"></path>
        <path d="M720.116037,316 C719.749895,316 702.266098,311.501315 678.819982,290.884094 C656.678374,271.41283 648,216.153429 648,216.153429 C648.92636,216.185484 649.835714,216.200509 650.736064,216.200509 C681.081862,216.199507 696.66392,198.614466 698.347574,196.178305 C698.347574,196.178305 698.350575,196.014024 698.4146,196.014024 C698.424604,196.014024 698.436609,196.018031 698.449614,196.027046 C698.462619,196.008014 698.476624,196 698.489629,196 C698.544651,196 698.597671,196.132226 698.597671,196.132226 C700.253315,197.285196 710.515305,202.771568 725.891283,202.771568 C733.733331,202.771568 742.906898,201.34413 752.947802,197.187028 C752.947802,197.187028 763.782014,251.897492 750.019663,277.988063 C735.343958,305.810593 720.284103,316 720.12204,315.998998 C720.12204,315.998998 720.12204,315.998998 720.121039,315.998998 C720.121039,316 720.119038,316 720.116037,316" id="Fill-31" fill="#758597"></path>
        <polyline id="Fill-32" fill="#D1E7F5" points="767.857143 152 794.911087 159.883512 851 241.349465 839.121876 265 754 265 754 245.29122 818.006994 236.75025 787.652344 205.216203 767.857143 152"></polyline>
        <path d="M556.000502,419 C547.107942,419 538.523442,421.457701 530.48582,426.303254 C522.977016,430.830493 516.281005,437.243665 510.584429,445.365155 C499.244459,461.530302 493,482.886257 493,505.499501 C493,528.112745 499.244459,549.469698 510.584429,565.634845 C516.281005,573.756335 522.977016,580.16851 530.48582,584.695748 C538.523442,589.542299 547.107942,592 556.000502,592 C564.892058,592 573.476558,589.542299 581.51418,584.695748 C589.022984,580.16851 595.718995,573.756335 601.415571,565.634845 C612.755541,549.469698 619,528.112745 619,505.499501 C619,482.886257 612.755541,461.530302 601.415571,445.365155 C595.718995,437.243665 589.022984,430.830493 581.51418,426.303254 C573.476558,421.457701 564.892058,419 556.000502,419 Z M556.041643,426.631546 C586.596646,426.631546 611.325627,461.942413 611.325627,505.499501 C611.325627,549.057587 586.555504,584.367456 556.000502,584.367456 C525.445499,584.367456 500.675376,549.057587 500.675376,505.499501 C500.675376,461.942413 525.445499,426.631546 556.000502,426.631546 L556.041643,426.631546 Z" id="Fill-33" fill="#3B455A"></path>
        <path d="M556,426 C525.624558,426 501,461.369987 501,505 C501,548.631013 525.624558,584 556,584 C586.375442,584 611,548.631013 611,505 C611,461.369987 586.375442,426 556,426 Z M556.0409,432.370935 C568.59309,432.370935 580.511835,439.620448 589.675342,452.784117 C599.326653,466.645449 604.641607,485.190529 604.641607,505 C604.641607,524.810471 599.326653,543.354551 589.675342,557.215883 C580.511835,570.379552 568.55219,577.629065 556,577.629065 C543.44781,577.629065 531.488165,570.379552 522.32366,557.215883 C512.673347,543.354551 507.358393,524.810471 507.358393,505 C507.358393,485.190529 512.673347,466.645449 522.32366,452.784117 C531.488165,439.620448 543.44781,432.370935 556,432.370935 L556.0409,432.370935 Z" id="Fill-34" fill="#AEB8BD"></path>
        <polygon id="Fill-35" fill="#AEB8BD" points="555 505 557 505 557 431 555 431"></polygon>
        <polyline id="Fill-36" fill="#AEB8BD" points="555.314923 505 524 445.887718 525.685077 445 557 504.112282 555.314923 505"></polyline>
        <polyline id="Fill-37" fill="#AEB8BD" points="554.982078 506 505 474.608373 506.017922 473 556 504.391627 554.982078 506"></polyline>
        <polygon id="Fill-38" fill="#AEB8BD" points="501 506 556 506 556 504 501 504"></polygon>
        <polyline id="Fill-39" fill="#AEB8BD" points="508.010922 536 507 534.390945 554.990069 504 556 505.609055 508.010922 536"></polyline>
        <polyline id="Fill-40" fill="#AEB8BD" points="524.709102 566 523 565.111559 555.289887 505 557 505.888441 524.709102 566"></polyline>
        <polygon id="Fill-41" fill="#AEB8BD" points="555 579 557 579 557 505 555 505"></polygon>
        <polyline id="Fill-42" fill="#AEB8BD" points="587.292929 566 555 505.88737 556.708081 505 589 565.11263 587.292929 566"></polyline>
        <polyline id="Fill-43" fill="#AEB8BD" points="603.981265 537 555 505.640867 556.018735 504 605 535.359133 603.981265 537"></polyline>
        <polygon id="Fill-44" fill="#AEB8BD" points="556 506 608 506 608 504 556 504"></polygon>
        <polyline id="Fill-45" fill="#AEB8BD" points="556.016511 506 555 504.380824 602.983489 474 604 475.620177 556.016511 506"></polyline>
        <polyline id="Fill-46" fill="#AEB8BD" points="556.695338 506 555 505.105051 587.305664 444 589 444.894949 556.695338 506"></polyline>
        <path d="M564,505.499499 C564,511.851135 560.418567,517 556.0005,517 C551.582433,517 548,511.851135 548,505.499499 C548,499.147862 551.582433,494 556.0005,494 C560.418567,494 564,499.147862 564,505.499499" id="Fill-47" fill="#AEB8BD"></path>
        <path d="M556.000491,491 C549.832313,491 545,497.369714 545,505.5 C545,513.631276 549.832313,520 556.000491,520 C562.16867,520 567,513.631276 567,505.5 C567,497.369714 562.16867,491 556.000491,491 Z M556.040794,494.152217 C560.38555,494.152217 563.867253,499.233151 563.867253,505.5 C563.867253,511.766849 560.345248,516.848772 556.000491,516.848772 C551.655735,516.848772 548.132747,511.766849 548.132747,505.5 C548.132747,499.233151 551.655735,494.152217 556.000491,494.152217 L556.040794,494.152217 Z" id="Fill-48" fill="#3B455A"></path>
        <polygon id="Fill-49" fill="#145566" points="437 332 556 332 556 298 437 298"></polygon>
        <polyline id="Fill-50" fill="#145566" points="542.725155 410 655 410 655 469 542 469 542.725155 410"></polyline>
        <path d="M560,506 L550.526293,506 L550.526293,297.813402 C550.526293,294.977731 549.775214,292.888184 548.228466,291.426899 C545.400524,288.752039 540.270791,288.459383 538.537759,288.571251 L538.210772,288.582239 L518,288.582239 L518,279.033448 L538.06016,279.033448 C539.770401,278.928572 548.585179,278.728806 554.650294,284.405142 C558.150046,287.682295 560,292.318852 560,297.813402 L560,506" id="Fill-51" fill="#AEB8BD"></path>
        <path d="M498.197752,291 L524.802248,291 C528.224603,291 531,288.237735 531,284.831574 L531,283.168426 C531,279.762265 528.224603,277 524.802248,277 L498.197752,277 C494.774394,277 492,279.762265 492,283.168426 L492,284.831574 C492,288.237735 494.774394,291 498.197752,291" id="Fill-52" fill="#3B455A"></path>
        <path d="M660,570 L650.429522,570 L650.429522,404.932911 C650.429522,394.986081 646.937063,387.532693 640.049241,382.779288 C635.553789,379.677202 631.029308,378.729315 629.959248,378.539737 L556,378.539737 L556,369 L630.636919,369 L630.94022,369.038913 C631.240517,369.076829 638.398606,370.037687 645.496636,374.936768 C652.113189,379.501593 660,388.412732 660,404.932911 L660,570" id="Fill-53" fill="#AEB8BD"></path>
        <polygon id="Fill-54" fill="#AEB8BD" points="539 476 655 476 655 466 539 466"></polygon>
        <polygon id="Fill-55" fill="#464647" points="650 567 660 567 660 535 650 535"></polygon>
        <path d="M661,571 C661,582.045921 652.045921,591 641,591 C629.954079,591 621,582.045921 621,571 C621,559.954079 629.954079,551 641,551 C652.045921,551 661,559.954079 661,571" id="Fill-56" fill="#AEB8BD"></path>
        <path d="M641,551 C629.954079,551 621,559.954079 621,571 C621,582.045921 629.954079,591 641,591 C652.045921,591 661,582.045921 661,571 C661,559.954079 652.045921,551 641,551 Z M641.086662,560.523857 C646.863134,560.523857 651.476143,565.223528 651.476143,571 C651.476143,576.777468 646.776472,581.477139 641,581.477139 C635.223528,581.477139 630.523857,576.777468 630.523857,571 C630.523857,565.223528 635.223528,560.523857 641,560.523857 L641.086662,560.523857 Z" id="Fill-57" fill="#3B455A"></path>
        <path d="M651.892505,554 L638.26762,567.605194 C636.899785,568.527853 636,570.091136 636,571.863931 C636,574.70141 638.302925,577 641.144511,577 C642.9925,577 644.608482,576.022948 645.515328,574.5614 L659,561.096216 L651.892505,554" id="Fill-58" fill="#464647"></path>
        <polyline id="Fill-59" fill="#AEB8BD" points="710 576 662.698095 576 651.240621 509.598373 541 509.598373 541 500 659.275733 500 670.733208 566.402631 710 566.402631 710 576"></polyline>
        <path d="M676.415613,577 L705.583389,577 C709.12765,577 712,574.12672 712,570.583541 L712,569.416459 C712,565.872281 709.12765,563 705.583389,563 L676.415613,563 C672.87235,563 670,565.872281 670,569.416459 L670,570.583541 C670,574.12672 672.87235,577 676.415613,577" id="Fill-60" fill="#3B455A"></path>
        <path d="M650,465.786869 L641.540145,456.982193 C639.093826,454.436853 635.724121,453 632.203024,453 L542,453 L542,466 L650,465.786869" id="Fill-61" fill="#145566"></path>
        <polyline id="Fill-62" fill="#1A3151" points="570.55874 419 605 462.938015 599.897851 554 580.125645 554 574.386103 471.216105 524 454.022534 570.55874 419"></polyline>
        <polyline id="Fill-63" fill="#1A3151" points="607.585811 418 652.370531 443.570703 685 549.688719 667.086313 558 625.499498 462.108861 588.39236 451.241112 566 430.145482 607.585811 418"></polyline>
        <path d="M493.84728,273.317657 C499.538834,273.877617 505.230387,274.439587 510.921941,274.999546 C511.843308,275.091029 511.966821,261.327289 512.528605,260.256631 C513.276655,258.832102 515.90728,258.39077 517.267914,257.442759 C519.104671,256.162996 520.659539,254.469044 521.895664,252.601172 C527.370074,244.328451 525.747473,234.76893 525.856045,225.282796 C525.883935,222.771524 525.900868,220.182843 525.058192,217.848506 C523.579025,213.75085 519.788972,211.296881 516.068644,209.746689 C506.574088,205.791787 495.488806,205.900361 486.687516,211.432598 C484.344755,212.905382 482.13248,214.801402 480.77583,217.384052 C478.657186,221.418373 479.117371,226.052866 479.010791,230.432009 C478.892259,235.281639 479.755853,240.40572 481.32367,245.028149 C482.900451,249.674706 485.57092,254.067924 489.522336,256.934071 C495.010691,260.915111 492.355164,267.341071 493.84728,273.317657" id="Fill-64" fill="#EAC5B0"></path>
        <path d="M482.462503,235.270067 C481.97123,234.494354 481.513907,233.703646 481.290238,232.816974 C480.484431,229.622155 484.147009,229.228301 484.919865,226.422339 C485.463061,224.449068 485.161507,221.324224 487.468093,220.418559 C489.405225,219.659839 491.478156,221.468171 493.544098,221.245253 C495.628013,221.020336 496.901128,218.916114 498.201204,217.248731 C499.501279,215.581347 501.894736,214.109892 503.553281,215.410411 C504.058533,215.807264 504.387047,216.407042 504.911271,216.778905 C506.201361,217.695566 507.932798,216.893862 509.450551,216.46802 C512.473077,215.622332 516.340352,216.965835 517.119199,220.044697 C517.252002,220.570503 517.292942,221.124298 517.519606,221.617116 C518.227558,223.151548 520.25256,223.342477 521.92109,223.459434 C523.587623,223.57839 525.653565,224.240146 525.81932,225.926522 C525.986073,227.623894 523.972054,229.078356 524.423386,230.720749 C524.635073,231.494463 525.335036,232.005274 525.828306,232.632042 C526.70401,233.744631 526.923685,235.349038 526.37949,236.660553 C526.003048,237.567217 525.300088,238.325937 525.05545,239.279584 C524.456337,241.618719 527.177309,243.764926 529.531824,243.377069 C531.886338,242.990212 533.64174,240.960962 534.809012,238.852742 C535.743628,237.162367 536.45158,235.189097 535.986269,233.310791 C535.757607,232.389132 535.257348,231.548443 535.085602,230.614788 C534.820994,229.181318 535.355203,227.736852 535.832497,226.360362 C536.68124,223.914266 537.355242,221.179277 536.794073,218.588236 C536.526469,217.348694 536.391669,216.451026 536.268851,215.335438 C536.150027,214.254838 536.303799,213.457133 535.547918,212.506485 C534.630276,211.35691 533.289261,210.420256 533.005681,208.968793 C532.612264,206.952538 534.482495,205.101223 534.39163,203.047982 C534.349692,202.086338 533.875394,201.197666 533.313226,200.421953 C531.603757,198.063825 528.943694,196.436427 526.087922,196.004587 C524.784851,195.80566 523.402897,195.83365 522.235625,195.212879 C520.098788,194.074301 519.467722,191.23535 517.655405,189.618948 C515.869049,188.025537 513.24793,187.880591 510.879436,188.123501 C508.510942,188.366411 506.105503,188.912209 503.779945,188.398399 C500.347027,187.64068 497.398392,184.640789 493.906561,185.035643 C489.118649,185.576443 487.085659,191.903103 482.617274,193.726429 C479.691605,194.920987 476.046001,194.02132 473.502766,195.91362 C469.840188,198.637613 470.65598,205.234174 469.151208,209.194709 C467.019364,214.804635 465.949947,219.030072 468.439262,224.885907 C469.157199,226.575282 470.05487,228.357623 469.692407,230.160956 C469.533642,230.949664 469.141223,231.668399 468.914558,232.440113 C468.117738,235.147112 469.468738,238.059035 471.310012,240.179251 C473.151286,242.299467 475.487828,243.94086 477.271188,246.110058 C478.11394,247.13368 478.839865,248.282255 479.880325,249.097953 C480.920785,249.913652 482.411578,250.331497 483.559878,249.679738 C483.006697,248.835051 483.016682,247.651488 483.581846,246.815797 C484.043163,246.134049 484.82201,245.688214 485.161507,244.936492 C485.384178,244.443675 485.387173,243.879883 485.357217,243.339083 C485.224414,240.962962 484.509472,238.622827 483.29527,236.58558 C483.03166,236.142744 482.74109,235.707905 482.462503,235.270067" id="Fill-65" fill="#CCD2D9"></path>
        <path d="M482.787689,186.267116 C481.655225,185.257024 480.096963,184.526088 478.634655,184.930519 C478.020945,185.100183 477.472205,185.457267 476.860494,185.635808 C474.815462,186.233578 472.807412,184.751977 470.746388,184.216352 C468.48146,183.626474 465.935664,184.265673 464.219477,185.854793 C463.067022,186.921111 462.298386,188.74204 463.174971,190.045099 C463.407861,190.391332 463.735705,190.665556 463.968595,191.010802 C464.856175,192.332603 464.037563,194.191015 462.807145,195.201108 C461.576727,196.2112 460.005471,196.726111 458.737071,197.689842 C456.358197,199.498933 455.367666,202.927724 456.416169,205.725206 C457.465673,208.522689 460.467252,210.457055 463.45084,210.257799 C464.912149,210.159157 466.414438,209.610708 467.801781,210.080244 C468.553426,210.33474 469.175131,210.86346 469.869803,211.247177 C472.291657,212.586733 475.421176,212.016583 477.734081,210.496512 C480.047986,208.976441 481.701204,206.656385 483.206491,204.334356 C483.794213,203.426851 484.39293,202.382234 484.153043,201.327753 C483.368415,197.877261 480.126949,198.337919 483.175506,194.843038 C485.603357,192.060352 485.739293,188.897894 482.787689,186.267116" id="Fill-66" fill="#CCD2D9"></path>
        <path d="M610.909244,407.793721 C585.420163,389.027398 564.181596,356.498303 551.294039,327.856181 C549.002762,322.766431 530.344506,268 521.420428,268 L483.719871,268.53724 C483.719871,268.53724 445.854294,325.079772 460.276037,399.80127 C464.897596,423.747552 469.182113,443.571316 472.870559,459.46601 C488.337429,498.727647 524.274773,465.441805 541.37584,452.200236 C551.356046,444.472396 576.535089,437.793979 594.894309,430.559277 C611.86936,423.870836 623.014708,416.705294 610.909244,407.793721" id="Fill-67" fill="#B5D6CA"></path>
        <polyline id="Fill-68" fill="#3A3029" points="682.043186 551 702 556.052267 702 563 670.128103 563 669 556.999505 682.043186 551"></polyline>
        <polyline id="Fill-69" fill="#3A3029" points="597.181773 554.117143 608 558.666876 608 564 580.147757 564 580 554 597.181773 554.117143"></polyline>
        <path d="M524,270 L541.77002,280.768589 C541.77002,280.768589 594.82436,342.33027 595.463158,344.235061 C596.102959,346.139851 600.576551,369.621649 599.937753,368.987383 C599.298955,368.352121 579.483177,363.275002 579.483177,363.275002 L539.213825,325.829386 L524,270" id="Fill-70" fill="#2E4661"></path>
        <polyline id="Fill-71" fill="#2E4661" points="595.578774 344 581.683915 349.110888 564 382.333166 572.210283 390 600 368.916959 595.578774 344"></polyline>
        <path d="M630.660414,293.097911 C618.648905,286.012415 599.480409,285.567253 590.275562,295.133225 C591.955549,281.962844 576.081874,265.758543 563.032903,260.840705 C528.597171,247.864832 498.644078,281.688127 500.047409,314.753442 C500.803203,332.549899 505.709849,350.143828 512.208273,366.945688 C517.651191,381.014414 533.735366,413.027985 533.845628,412.998909 C533.890735,413.104184 568.910854,405.567509 583.281963,400.988556 C600.442693,395.520281 617.22252,388.313468 631.557543,377.745882 C658.192761,358.110625 662.355641,311.799732 630.660414,293.097911" id="Fill-72" fill="#EBB044"></path>
        <g id="Group-75" transform="translate(597.000000, 366.000000)">
            <mask id="mask-2" fill="white">
                <use xlink:href="#path-1"></use>
            </mask>
            <g id="Clip-74"></g>
            <polygon id="Fill-73" fill="#E0E0E0" mask="url(#mask-2)" points="0.531 30.625 46.056 30.625 46.056 0.411 0.531 0.411"></polygon>
        </g>
        <path d="M630.996819,379 C630.619562,378.895027 630.284221,378.811048 630,378.744915 C630.152334,378.630495 630.305691,378.515024 630.457003,378.400604 C633.333977,376.223461 635.952289,373.735599 638.298648,371 C638.529706,371.098675 638.763831,371.202598 639,371.309671 C636.616835,374.154442 633.943315,376.742029 630.996819,379" id="Fill-76" fill="#99A2A6"></path>
        <path d="M533.67574,414 C533.672741,414 533.670742,414 533.669742,413.998998 C533.585775,413.998998 526.382545,399.683856 520,386 C520.023991,386.019039 520.047982,386.03908 520.071972,386.058118 C526.358554,399.494471 533.28689,413.25849 533.368858,413.25849 C533.368858,413.259493 533.370857,413.259493 533.374856,413.259493 C533.890657,413.260495 568.435371,405.800308 582.668897,401.255055 C587.616993,399.674838 592.535102,397.948323 597.371242,396.038435 C597.580161,396.242852 597.790081,396.447268 598,396.64968 C593.0589,398.611674 588.030834,400.379272 582.969781,401.995562 C568.738255,406.540815 534.19654,414 533.67574,414" id="Fill-77" fill="#9FBCB1"></path>
        <path d="M533.281437,413 C533.277445,413 533.275449,413 533.275449,412.998993 C533.193613,412.998993 526.276447,399.164043 520,385.658448 C525.03992,389.808128 530.989022,392.873049 537.686627,394.691051 C543.401198,396.244159 549.297405,396.901863 555.222555,396.901863 C563.821357,396.901863 572.479042,395.514944 580.711577,393.465284 C595.090818,389.883668 609.325349,384.49815 622.573852,377.836505 C628.934132,374.637626 635.129741,371.05198 641,367 C640.121756,368.200587 639.192615,369.363907 638.215569,370.483918 C635.92515,373.10869 633.369261,375.495763 630.560878,377.584704 C630.413174,377.694489 630.263473,377.805281 630.11477,377.915066 C620.082834,385.301898 608.868263,391.039938 597.174651,395.690197 C592.346307,397.609928 587.436128,399.345339 582.496008,400.9337 C568.285429,405.502376 533.796407,413.001007 533.281437,413" id="Fill-78" fill="#CE9B3C"></path>
        <path d="M627.904465,366.869214 C619.16049,362.944491 610.415516,359.018763 601.671542,355.093035 C604.313023,341.473656 606.955505,327.85327 609.596987,314.23389 C609.978767,312.264993 607.482202,311.223227 606.19794,312.595824 C589.47655,330.463718 572.75616,348.329601 556.03577,366.197496 C555.067326,367.232223 554.098883,368.267955 553.130439,369.302682 C555.192254,353.229722 557.255069,337.158774 559.316884,321.087825 C559.647694,318.509555 559.978504,315.93229 560.309314,313.35402 C560.508199,311.800421 558.690244,310.269951 557.289049,311.378084 C550.774793,316.530602 544.261537,321.68312 537.74828,326.835638 C528.086833,322.18188 518.425385,317.527117 508.764938,312.872354 C506.496241,311.778299 504.804214,315.323923 507.075908,316.418984 C517.101147,321.248715 527.126385,326.079452 537.151623,330.909184 C537.738286,331.191748 538.561812,331.183703 539.091508,330.764382 C544.6733,326.348944 550.255092,321.9325 555.837883,317.518067 C553.722099,334.00532 551.606315,350.494584 549.490531,366.982843 C549.159722,369.561113 548.828912,372.137372 548.498102,374.715642 C548.250244,376.649344 550.552921,377.790661 551.898148,376.353708 C568.618538,358.485814 585.338928,340.618925 602.059319,322.752036 C602.858859,321.8963 603.659399,321.042574 604.45894,320.187844 C602.149267,332.092734 599.840594,343.998631 597.530921,355.903521 C597.371013,356.730096 597.838744,357.677339 598.6113,358.024259 C607.813012,362.155122 617.014723,366.285986 626.216435,370.416849 C628.510117,371.446548 630.207141,367.902935 627.904465,366.869214" id="Fill-79" fill="#FFFFFF"></path>
        <polyline id="Fill-80" fill="#EAC5B0" points="615 388.848194 603.542501 378 593.358391 379.611518 593 386.56782 602.499363 391.358929 607.343648 394 615 388.848194"></polyline>
        <polyline id="Fill-81" fill="#EAC5B0" points="523.183258 356 534.727365 360.810021 542 377.180293 534.121059 379 522 368.08581 523.183258 356"></polyline>
        <polyline id="Fill-82" fill="#B5D6CA" points="481.201941 273.45879 439 353.075466 452.954526 369 522.097201 369 524 356.261172 474.52224 342.247262 497.357823 305.30586 484.037232 269 481.201941 273.45879"></polyline>
        <polygon id="Fill-83" fill="#145566" points="439 469 538 469 538 410 439 410"></polygon>
        <path d="M443,506 L433.526293,506 L433.526293,297.866365 C433.526293,295.022711 432.774223,292.928283 431.227475,291.461883 C428.400524,288.779493 423.267818,288.486013 421.537759,288.598196 L421.210772,288.609214 L401,288.609214 L401,279.033543 L421.059169,279.033543 C422.773374,278.92837 431.585179,278.728043 437.649303,284.420359 C441.150046,287.706737 443,292.356347 443,297.866365 L443,506" id="Fill-84" fill="#AEB8BD"></path>
        <path d="M382.197912,291 L408.803091,291 C412.225534,291 415,288.237735 415,284.831574 L415,283.168426 C415,279.762265 412.225534,277 408.803091,277 L382.197912,277 C378.774466,277 376,279.762265 376,283.168426 L376,284.831574 C376,288.237735 378.774466,291 382.197912,291" id="Fill-85" fill="#3B455A"></path>
        <path d="M543,570 L533.429522,570 L533.429522,404.932911 C533.429522,394.987079 529.937063,387.532693 523.04824,382.779288 C518.553789,379.677202 514.029308,378.729315 512.959248,378.539737 L439,378.539737 L439,369 L513.635918,369 L513.94022,369.038913 C514.240517,369.076829 521.398606,370.037687 528.496636,374.936768 C535.113189,379.501593 543,388.412732 543,404.932911 L543,570" id="Fill-86" fill="#AEB8BD"></path>
        <polygon id="Fill-87" fill="#AEB8BD" points="439 476 538 476 538 466 439 466"></polygon>
        <polyline id="Fill-88" fill="#AEB8BD" points="611 576 563.698375 576 552.240968 509.598373 442 509.598373 442 500 560.275034 500 571.73344 566.402631 611 566.402631 611 576"></polyline>
        <polygon id="Fill-89" fill="#464647" points="533 567 543 567 543 535 533 535"></polygon>
        <path d="M544,571 C544,582.045921 535.045148,591 524.000498,591 C512.954852,591 504,582.045921 504,571 C504,559.954079 512.954852,551 524.000498,551 C535.045148,551 544,559.954079 544,571" id="Fill-90" fill="#AEB8BD"></path>
        <path d="M524.000498,551 C512.954852,551 504,559.954079 504,571 C504,582.045921 512.954852,591 524.000498,591 C535.045148,591 544,582.045921 544,571 C544,559.954079 535.045148,551 524.000498,551 Z M523.693702,560.523857 C529.47003,560.523857 534.47638,565.223528 534.47638,571 C534.47638,576.777468 529.776826,581.477139 524.000498,581.477139 C518.223174,581.477139 513.524616,576.777468 513.524616,571 C513.524616,565.223528 518.223174,560.523857 524.000498,560.523857 L523.693702,560.523857 Z" id="Fill-91" fill="#3B455A"></path>
        <path d="M534.893202,554 L521.267719,567.605194 C519.899825,568.527853 519,570.091136 519,571.863931 C519,574.70141 521.303026,577 524.143728,577 C525.992807,577 527.60886,576.022948 528.515746,574.5614 L542,561.096216 L534.893202,554" id="Fill-92" fill="#464647"></path>
        <path d="M576.416611,577 L605.584387,577 C609.12765,577 612,574.12672 612,570.583541 L612,569.416459 C612,565.872281 609.12765,563 605.584387,563 L576.416611,563 C572.87235,563 570,565.872281 570,569.416459 L570,570.583541 C570,574.12672 572.87235,577 576.416611,577" id="Fill-93" fill="#3B455A"></path>
        <path d="M438.999499,419 C429.53829,419 420.384607,421.407809 411.795893,426.15657 C403.678987,430.643895 396.427563,437.018152 390.240964,445.105714 C377.833708,461.323747 371,482.771504 371,505.499501 C371,528.228496 377.833708,549.676253 390.240964,565.894286 C396.427563,573.980851 403.678987,580.356105 411.795893,584.84343 C420.384607,589.592191 429.53829,592 438.999499,592 C448.46171,592 457.614391,589.592191 466.204107,584.84343 C474.320011,580.356105 481.572437,573.980851 487.759036,565.894286 C500.166292,549.676253 507,528.228496 507,505.499501 C507,482.771504 500.166292,461.323747 487.759036,445.105714 C481.572437,437.018152 474.320011,430.643895 466.204107,426.15657 C457.614391,421.407809 448.46171,419 438.999499,419 Z M439.304021,426.631546 C472.628113,426.631546 499.337873,461.942413 499.337873,505.499501 C499.337873,549.057587 472.323591,584.367456 438.999499,584.367456 C405.676409,584.367456 378.662127,549.057587 378.662127,505.499501 C378.662127,461.942413 405.676409,426.631546 438.999499,426.631546 L439.304021,426.631546 Z" id="Fill-94" fill="#3B455A"></path>
        <path d="M438.999502,426 C405.86301,426 379,461.369987 379,505 C379,548.631013 405.86301,584 438.999502,584 C472.13699,584 499,548.631013 499,505 C499,461.369987 472.13699,426 438.999502,426 Z M439.302318,432.370935 C453.301605,432.370935 466.272908,439.697411 476.37642,453.001012 C486.870406,466.818366 492.650815,485.286482 492.650815,505 C492.650815,524.714517 486.870406,543.181634 476.37642,556.999987 C466.272908,570.302589 452.998788,577.629065 438.999502,577.629065 C425.000216,577.629065 411.727092,570.302589 401.62358,556.999987 C391.128597,543.181634 385.349185,524.714517 385.349185,505 C385.349185,485.286482 391.128597,466.818366 401.62358,453.001012 C411.727092,439.697411 425.000216,432.370935 438.999502,432.370935 L439.302318,432.370935 Z" id="Fill-95" fill="#AEB8BD"></path>
        <polygon id="Fill-96" fill="#AEB8BD" points="438 505 440 505 440 431 438 431"></polygon>
        <polyline id="Fill-97" fill="#AEB8BD" points="438.343402 505 404 445.950348 405.656598 445 440 504.050645 438.343402 505"></polyline>
        <polyline id="Fill-98" fill="#AEB8BD" points="439.037451 506 384 474.645231 384.962549 473 440 504.355762 439.037451 506"></polyline>
        <polygon id="Fill-99" fill="#AEB8BD" points="379 506 439 506 439 504 379 504"></polygon>
        <polyline id="Fill-100" fill="#AEB8BD" points="386.958574 536 386 534.355075 439.041426 504 440 505.644925 386.958574 536"></polyline>
        <polyline id="Fill-101" fill="#AEB8BD" points="404.676893 566 403 565.049857 438.323107 505 440 505.950143 404.676893 566"></polyline>
        <polygon id="Fill-102" fill="#AEB8BD" points="438 579 440 579 440 505 438 505"></polygon>
        <polyline id="Fill-103" fill="#AEB8BD" points="473.325124 566 438 505.948984 439.674876 505 475 565.051016 473.325124 566"></polyline>
        <polyline id="Fill-104" fill="#AEB8BD" points="492.052458 537 439 505.677468 439.947542 504 493 535.321519 492.052458 537"></polyline>
        <polygon id="Fill-105" fill="#AEB8BD" points="439 506 496 506 496 504 439 504"></polygon>
        <polyline id="Fill-106" fill="#AEB8BD" points="438.964826 506 438 504.344741 491.035174 474 492 475.656259 438.964826 506"></polyline>
        <polyline id="Fill-107" fill="#AEB8BD" points="439.66238 506 438 505.042873 473.33762 444 475 444.957127 439.66238 506"></polyline>
        <path d="M448,505.499499 C448,511.851135 444.19403,517 439.499514,517 C434.804998,517 431,511.851135 431,505.499499 C431,499.147862 434.804998,494 439.499514,494 C444.19403,494 448,499.147862 448,505.499499" id="Fill-108" fill="#AEB8BD"></path>
        <path d="M438.999497,491 C432.383178,491 427,497.504229 427,505.5 C427,513.495771 432.383178,520 438.999497,520 C445.616822,520 451,513.495771 451,505.5 C451,497.504229 445.616822,491 438.999497,491 Z M439.305268,494.152217 C444.162399,494.152217 447.794434,499.233151 447.794434,505.5 C447.794434,511.766849 443.856628,516.848772 438.999497,516.848772 C434.142366,516.848772 430.205566,511.766849 430.205566,505.5 C430.205566,499.233151 434.142366,494.152217 438.999497,494.152217 L439.305268,494.152217 Z" id="Fill-109" fill="#3B455A"></path>
        <path d="M684.117071,508.331318 C684.117071,508.331318 680.416152,513.155932 675.483278,506.522829 C670.549394,499.888737 667.465969,501.699203 666.231993,504.713351 C664.999027,507.728488 668.91723,506.654265 672.398843,511.950272 C677.94921,520.392853 684.117071,526.423126 685.966519,527.025956 C687.816979,527.629774 693.300644,528.850257 694.258719,532.460317 C695.217805,536.072354 696.450771,520.392853 695.834288,519.790023 C695.217805,519.187193 684.117071,508.331318 684.117071,508.331318" id="Fill-110" fill="#9EA6AD"></path>
        <path d="M733.00457,530 C733.00457,530 726.801833,547.553923 729.835641,552.342637 C732.870436,557.133362 741.252859,572.996855 739.983512,575.68485 C738.713179,578.371839 739.367085,579.588627 741.61877,578.725814 C743.869469,577.861995 746.987112,575.724069 745.698039,569.721584 C744.408967,563.718094 741.816027,556.745196 743.759992,551.704075 C745.70297,546.661948 741.365296,531.816131 741.365296,531.816131 L733.00457,530" id="Fill-111" fill="#9EA6AD"></path>
        <path d="M709.992507,475.390695 C709.992507,475.390695 716.06041,472.94885 717.273593,480.274387 C718.487771,487.598923 728.197212,498.586729 741.546203,505.301054 C754.594881,511.864327 768.092039,523.603393 759.066753,542.531948 C750.041467,561.460504 722.128314,550.473699 714.847227,542.53795 C707.565146,534.601201 691.788795,532.160356 685.719897,519.340916 C679.651993,506.522477 685.719897,498.586729 685.113305,494.314249 C684.506714,490.039769 709.992507,475.390695 709.992507,475.390695" id="Fill-112" fill="#9EA6AD"></path>
        <path d="M687.265884,518 L687,521.00844 C687,521.00844 688.510424,523.931689 692.856598,530.807417 C697.203796,537.684135 696.950184,556.520319 696.418417,558.534201 C695.885627,560.547092 694.009102,561.761563 697.110737,562.705601 C700.212371,563.649639 701.708478,562.745225 703.576822,553.642637 C705.445166,544.541041 705.966707,546.641104 706.770494,541.56529 C707.57428,536.488485 706.008635,530.186313 706.008635,530.186313 L687.265884,518" id="Fill-113" fill="#9EA6AD"></path>
        <path d="M732.962623,544.015698 C732.962623,544.015698 729.646923,552.859796 736.308033,559.152255 C742.968153,565.444714 749.099425,568.296372 751.498059,572.873876 C753.896692,577.45138 748.645844,579.004939 752.642906,578.999988 C756.640959,578.994047 759.324814,578.378168 758.968287,573.419453 C758.612751,568.459748 750.494832,564.152557 751.595113,557.207583 C752.695395,550.26261 758.046269,548.840742 758.669201,543.721621 C759.292133,538.6025 743.479175,530 743.479175,530 L732,544.366214 L732.962623,544.015698" id="Fill-114" fill="#9EA6AD"></path>
        <path d="M759.031758,535.975194 C760.017033,536.416406 765.196677,538.850881 769.628427,534.167397 C774.060176,529.482937 774.297556,522.804237 769.297684,518.695695 C764.298806,514.587153 760.523575,519.044175 760.974497,520.559132 C761.425419,522.07409 766.811654,527.916244 761.244653,532.482592 C758.560972,534.165445 759.031758,535.975194 759.031758,535.975194" id="Fill-115" fill="#9EA6AD"></path>
        <path d="M683,491.70536 L685.22905,493.538103 C685.22905,493.538103 696.365316,497.366975 709.251481,482.976994 C714.349448,475.319251 712.76825,474 712.76825,474 L709.916303,474.604826 C709.916303,474.604826 704.441006,491.358295 683,491.70536" id="Fill-116" fill="#37454D"></path>
        <path d="M695,452.883221 C695,452.883221 693.897701,451.118697 690.705356,451.001881 C687.513011,450.886091 682.589343,456.151998 681.408667,456.570074 C680.227992,456.987125 677.381308,457.660349 680.219953,458.793662 C683.058599,459.927999 693.566107,456.165319 695,452.883221" id="Fill-117" fill="#3B455A"></path>
        <path d="M705.388728,459.160443 C705.388728,459.160443 700.414131,452.1586 692.936162,452.003316 C688.519098,451.912148 684.527968,453.708443 681.173732,456.480527 C679.46497,457.892117 678.109814,459.605259 676.503518,461.107013 C675.437676,462.10284 674.119689,462.545652 673.080971,463.633647 C670.619791,466.207368 669.399247,470.888955 670.291299,474.333272 C671.182346,477.77759 667.138979,487.794963 678.62616,490.416772 C690.11334,493.038581 705.469093,486.311242 708.802233,480.392386 C712.13437,474.474531 715.131986,468.469517 705.388728,459.160443" id="Fill-118" fill="#9EA6AD"></path>
        <path d="M703.689649,460.108592 C703.689649,460.108592 707.142646,458.060772 709.988302,459.531627 C712.834963,461.002481 715.110482,460.514905 714.995851,463.742049 C714.882226,466.970209 715.311588,475.045688 711.461406,477.47341 C707.61223,479.900117 708.598657,473.282288 706.686135,470.970364 C704.773613,468.657425 701.591104,461.066475 703.689649,460.108592" id="Fill-119" fill="#3B455A"></path>
        <polyline id="Fill-120" fill="#EAC5B0" points="377.667014 274.73186 395.66322 270 403.665363 271.57997 407.160599 276.054204 399.828511 276.054204 397.662235 281.911164 401.568019 290.167262 412 290.044488 408.327367 297.130201 394.577548 299 377 291.174619 377.667014 274.73186"></polyline>
        <polyline id="Fill-121" fill="#C8D6A1" points="287.42363 159 299.309392 163.058509 321.580471 246.629502 380 273.66517 377.716887 293 314.099209 283.768822 288.646548 270.984568 269 204.850022 273.220813 176.481575 287.42363 159"></polyline>
        <polyline id="Fill-122" fill="#B77858" points="754 248.036856 739.651337 239 721 247.702912 721 256.404806 737.653486 256.404806 754 259 754 248.036856"></polyline>
        <polyline id="Fill-123" fill="#B77858" points="632 239.277933 643.720723 232 660 235.308426 660 247.216948 637.980688 255 634.604605 253.171712 632 239.277933"></polyline>
        <polyline id="Fill-124" fill="#3B455A" points="196.727357 161 213.306718 168.542886 260 264.410853 254.882901 285 228.658016 277.923231 189 194.27932 196.727357 161"></polyline>
        <path d="M133,552.33283 L133,568.333333 L143.791017,579 L152.164676,579 C155.754551,579 158.089395,575.265207 156.483935,572.092294 L143.791017,547 L133,552.33283" id="Fill-125" fill="#3A3029"></path>
        <path d="M185,550.332662 L185,566.333669 L195.807196,577 L204.768812,574.051731 C208.098812,572.955192 209.097608,568.782505 206.614391,566.333669 L195.807196,545 L185,550.332662" id="Fill-126" fill="#3A3029"></path>
        <polyline id="Fill-127" fill="#B5D6CA" points="98 366.809785 116.589701 463.110903 129.009847 555 148.923097 555 159.496477 461.755282 168 352 98 366.809785"></polyline>
        <polyline id="Fill-128" fill="#B5D6CA" points="213.360181 358 218 453.292917 204.040222 552.967875 184.127203 554 175.966443 454.803174 156 366.459635 213.360181 358"></polyline>
        <path d="M164.989074,163.490791 C171.036461,165.326523 177.082841,167.164268 183.129221,169 C185.167485,163.753326 186.835522,158.341687 188.112203,152.83449 C193.67266,152.980343 200.346818,152.486455 203.345863,147.116058 C204.289541,145.423161 204.708059,143.460687 205.111486,141.539455 C206.778517,133.595009 208.446553,125.650562 210.113583,117.707122 C210.690052,114.959056 211.270545,112.12549 210.864099,109.384465 C210.151813,104.576354 206.5763,101.073878 202.881066,98.5762757 C193.450322,92.2030151 181.411888,89.9438069 170.672269,94.119218 C167.814072,95.2317221 165.004165,96.8361019 162.972943,99.374945 C159.842105,103.290839 159.032232,108.743718 158.360189,113.857616 C157.74046,118.577209 157.120731,123.295796 156.499996,128.016394 C155.786704,133.445132 155.326938,139.767093 158.828004,143.41844 C160.686184,145.357778 163.424661,146.198695 164.894505,148.519262 C167.488111,152.610179 164.753658,158.40204 164.989074,163.490791" id="Fill-129" fill="#EAC5B0"></path>
        <path d="M182.584416,109.158264 C177.800366,113.52368 172.666337,117.270313 166.544189,119.415095 C162.782159,120.733503 159.090923,120.908159 158.024034,125.527077 C157.009991,129.921436 158.956315,135.342776 162.116101,138.300959 C162.659517,138.809958 163.264752,139.296002 163.5569,139.986644 C164.133219,141.350961 163.179002,143.017684 161.841901,143.625489 C160.503803,144.232296 158.950333,144.017718 157.560386,143.575587 C153.339693,142.237219 149.911689,138.975632 147.527641,135.185086 C142.501298,127.192801 141.805327,116.770296 144.719828,107.691149 C147.593449,98.7407483 153.781405,90.6097368 161.500895,85.5177495 C168.625121,80.8179909 175.725417,75.8787033 184.682298,77.2250559 C189.730578,77.9825664 197.930666,82.629429 196.913632,88.991918 C195.843752,95.6787693 187.185001,104.678073 182.584416,109.158264" id="Fill-130" fill="#BFBEBE"></path>
        <path d="M198.359952,110.090447 C201.369752,113.448565 205.016922,116.759512 205.675538,121.113221 C205.963871,123.020102 205.633046,124.952073 205.248601,126.834867 C204.56267,130.202017 203.706774,133.537051 202.684959,136.821904 C201.621665,140.241242 200.128399,144.077084 197.146927,146.38742 C195.936936,147.32681 187.977911,150.749159 193.796184,152.78651 C195.495836,153.381658 197.343196,152.627938 198.913351,151.807979 C211.354196,145.307523 220.657768,133.085422 221.872816,119.510438 C222.604274,111.332931 220.15293,102.87742 215.235068,96.0778848 C210.743131,89.868479 201.310062,81.6397868 192.693434,84.6355968 C181.211677,88.6290065 193.843734,105.051264 198.359952,110.090447" id="Fill-131" fill="#BFBEBE"></path>
        <path d="M216.441591,202.362802 C217.739261,190.679208 216.124915,173.223767 205.38692,165.965988 C196.113423,159.699497 188.595128,159 177.578418,159 C170.601568,159 163.623719,159 156.64587,159 L152.181445,159.295787 C152.181445,159.295787 116.196322,183.078676 99.4894434,249.287042 C83.9124067,311.012633 74.4281262,397.128676 89.8503216,399.057288 C90.1060595,399.088266 90.3727862,399.060286 90.6485036,398.984341 C92.9671275,399.300114 99.5204117,400.159495 108.97772,401.147784 C121.074323,401.838288 133.218878,402.056131 145.332464,401.98818 C147.632107,401.975189 149.942739,401.978187 152.259365,401.981185 C170.969191,402.007166 190.082604,402.032148 207.216045,393.659172 C221.843055,386.511315 240.372067,376.850266 233.537071,357.712035 C229.692012,347.689246 225.237577,335.665896 220.939981,321.279247 C204.232103,265.356481 213.871225,225.503154 216.441591,202.362802" id="Fill-132" fill="#3B455A"></path>
        <polyline id="Fill-133" fill="#3B455A" points="152.602444 159 136.610045 165.438236 72 242.691069 75.837738 262.648301 148.125249 309 159 292.90591 106.54362 242.691069 148.125249 200.201511 152.602444 159"></polyline>
        <polyline id="Fill-134" fill="#3ABABA" points="219.387352 340 102 308.821858 143.612648 153 261 184.178142 219.387352 340"></polyline>
        <polyline id="Fill-135" fill="#2B8A8A" points="217.475333 335 115 304.288382 215.624115 331.083506 254 187 217.475333 335"></polyline>
        <polyline id="Fill-136" fill="#FFFFF1" points="215.513775 332 110 303.836696 148.487225 159 254 187.163304 215.513775 332"></polyline>
        <polyline id="Fill-137" fill="#37B1B1" points="131 222 148.271552 158 179 166.140721 178.851456 166.695565 148.703038 158.708632 131.864992 221.597939 131 222"></polyline>
        <path d="M132,222 L148.633215,159 L178.414885,167.000991 L177.477563,170.551393 L218,181.438218 L164.314135,206.75925 C160.162569,205.643582 156.010005,204.527914 151.857441,203.412246 C151.788565,203.393115 151.719688,203.385059 151.650811,203.385059 C151.283469,203.385059 150.936091,203.635782 150.838266,204.006329 C149.922905,207.474164 149.007545,210.941998 148.091186,214.41084 L132,222 M150.061657,213.481452 C150.785361,210.736586 151.510063,207.992728 152.234766,205.248869 C155.480953,206.120862 158.726142,206.991849 161.97133,207.863842 L150.061657,213.481452" id="Fill-138" fill="#F2F2E5"></path>
        <polyline id="Fill-139" fill="#33A3A3" points="224.796416 179 223.784512 178.731235 224.591829 178.353159 179 166.211602 179.057164 166 225 178.234822 224.796416 179"></polyline>
        <polyline id="Fill-140" fill="#E0E0D4" points="223.084795 183 218 181.535968 223.016569 179 224 179.282477 223.084795 183"></polyline>
        <polyline id="Fill-141" fill="#309B9B" points="223.188081 179 178 167.530599 178.148263 167 224 178.637616 223.188081 179"></polyline>
        <polyline id="Fill-142" fill="#D5D5C9" points="217.823969 181 177 170.442879 177.944296 167 223 178.650718 217.823969 181"></polyline>
        <path d="M211.152061,161.613454 L199.203499,158.426789 C197.981915,158.100587 197.24837,156.835439 197.57307,155.615901 C197.89678,154.396362 199.161922,153.663647 200.383506,153.989849 L212.331078,157.176514 C213.552662,157.502716 214.286207,158.767863 213.962497,159.987402 C213.637797,161.207932 212.372655,161.939655 211.152061,161.613454 Z M218.60729,163.402111 L217.903443,163.215709 L218.029166,162.741775 C219.217092,158.277073 216.01761,153.546651 210.883787,152.177396 L204.121515,150.373867 C198.987693,149.004612 193.863769,151.514086 192.676833,155.978788 L192.551111,156.452722 L191.847264,156.26533 C186.713441,154.895084 181.589518,157.405549 180.401592,161.871242 L178,170.90277 L223.351077,183 L225.752668,173.967481 C226.939605,169.502779 223.740123,164.772357 218.60729,163.402111 Z" id="Fill-143" fill="#B5D6CA"></path>
        <path d="M163.127162,224 C163.056067,224 162.98201,223.989937 162.903015,223.968804 C157.805906,222.585118 152.708796,221.201431 147.611687,219.817745 C147.18018,219.701012 146.912587,219.230055 147.026141,218.793314 C147.474434,217.077542 147.922727,215.361771 148.37102,213.647006 L150.320205,212.718175 C149.823528,214.617096 149.326851,216.516017 148.831162,218.415945 C153.397034,219.654721 157.963894,220.894504 162.529767,222.133281 C163.743317,217.492145 164.95588,212.851009 166.169431,208.20786 C164.812703,207.840555 163.456963,207.472242 162.101223,207.10393 L164.418719,206 C165.40911,206.268687 166.398515,206.537374 167.388906,206.80606 C167.820413,206.922793 168.088006,207.39375 167.973464,207.830491 C166.619699,213.013026 165.265933,218.193548 163.91118,223.375077 C163.848972,223.615587 163.714682,223.773579 163.551756,223.868172 L163.532995,223.880248 L163.498435,223.898362 C163.391793,223.96176 163.267377,224 163.127162,224" id="Fill-144" fill="#C9CDC7"></path>
        <path d="M148,214 C148.903766,210.539269 149.806547,207.079543 150.709328,203.619817 C150.805809,203.250137 151.148413,203 151.510706,203 C151.578636,203 151.646567,203.008037 151.714497,203.027123 C155.809993,204.140183 159.905489,205.253242 164,206.366301 L161.689392,207.468311 C158.488801,206.598356 155.288211,205.729406 152.086635,204.859452 C151.371893,207.596895 150.65715,210.334338 149.943392,213.072785 L148,214" id="Fill-145" fill="#C2C6C1"></path>
        <path d="M155.128244,253 C155.05715,253 154.982107,252.990113 154.903114,252.969349 C149.806099,251.609822 144.708097,250.250294 139.611083,248.891756 C139.179584,248.776072 138.911996,248.313339 139.026535,247.883234 C140.380276,242.792175 141.734016,237.701116 143.088744,232.610057 C143.18551,232.247187 143.529129,232 143.892496,232 C143.960627,232 144.028759,232.008899 144.09689,232.026696 C149.193905,233.386223 154.290919,234.745751 159.387934,236.105278 C159.82042,236.219973 160.088008,236.682706 159.973468,237.1138 C158.619728,242.20387 157.265001,247.295918 155.91126,252.385988 C155.848066,252.62131 155.714766,252.778521 155.550855,252.870474 L155.532095,252.882339 L155.498523,252.901125 C155.391882,252.962428 155.267468,253 155.128244,253 M144.470131,233.830171 C143.256603,238.391261 142.044063,242.951363 140.830535,247.512454 C145.39731,248.73059 149.964085,249.947738 154.529873,251.165874 C155.742413,246.604784 156.955941,242.044682 158.168481,237.483592 C153.602694,236.265455 149.035919,235.048307 144.470131,233.830171" id="Fill-146" fill="#C9CDC7"></path>
        <path d="M148.128544,281 C148.057449,281 147.982404,280.990113 147.90341,280.96836 C142.805313,279.608833 137.708203,278.251283 132.611094,276.890767 C132.179587,276.776072 131.911994,276.31235 132.026536,275.883234 C133.380301,270.791186 134.734067,265.701116 136.087832,260.610057 C136.1846,260.247187 136.529213,260 136.892587,260 C136.959732,260 137.028852,260.00791 137.095997,260.026696 C142.193107,261.386223 147.291204,262.745751 152.388313,264.105278 C152.81982,264.219973 153.087413,264.682706 152.973859,265.112811 C151.619106,270.20387 150.26534,275.294929 148.910588,280.385988 C148.84838,280.62131 148.714089,280.777532 148.551163,280.870474 L148.532402,280.88135 L148.497842,280.900137 C148.392187,280.962428 148.267771,281 148.128544,281 M137.469246,261.830171 C136.256683,266.390273 135.043132,270.952352 133.830569,275.512454 C138.397429,276.729601 142.963302,277.947738 147.530162,279.165874 C148.742725,274.604784 149.955288,270.044682 151.168838,265.483592 C146.602966,264.265455 142.036106,263.047319 137.469246,261.830171" id="Fill-147" fill="#C9CDC7"></path>
        <polyline id="Fill-148" fill="#6BAC8F" points="156 209.913088 159.867983 209.67467 160.89838 213.810957 181.129909 206 183 206.934393 158.955403 218 156 209.913088"></polyline>
        <polyline id="Fill-149" fill="#6BAC8F" points="146 238.915117 149.867983 238.675685 150.89838 242.811972 171.130907 235 173 235.934393 148.955403 247 146 238.915117"></polyline>
        <polyline id="Fill-150" fill="#6BAC8F" points="139 265.914786 142.868982 265.675374 143.899379 269.812326 164.130907 262 166 262.934314 141.955403 274 139 265.914786"></polyline>
        <polyline id="Fill-151" fill="#DADDD4" points="212.931788 295 158 280.628339 160.068212 273 215 287.370673 212.931788 295"></polyline>
        <polyline id="Fill-152" fill="#DADDD4" points="220.931788 265 166 250.627352 168.068212 243 223 257.371661 220.931788 265"></polyline>
        <polyline id="Fill-153" fill="#DADDD4" points="228.932757 235 174 220.627997 176.067243 213 231 227.371016 228.932757 235"></polyline>
        <polyline id="Fill-154" fill="#3B455A" points="71 242.786384 99.9507202 237 163 292.929044 146.916378 309 74.8596293 262.714928 71 242.786384"></polyline>
        <polyline id="Fill-155" fill="#EAC5B0" points="161.236477 296 175.52008 303.388314 180 321.102761 171.679011 323 160.79764 310.98022 152 304.490857 161.236477 296"></polyline>
        <polyline id="Fill-156" fill="#3B455A" points="261 264.333333 247.355918 244.376506 186.748008 223 179 236.562249 240.649811 280.925703 255.834661 285 261 264.333333"></polyline>
        <polyline id="Fill-157" fill="#EAC5B0" points="185 225.817072 170.993925 216 151 217.963821 151.644707 225.819107 172.929047 233.672357 180.391802 234 185 225.817072"></polyline>
        <path d="M413.75582,174 C412.862848,174 411.955876,173.90611 411.046905,173.711339 C409.964939,173.479611 408.94597,173.119034 408,172.647588 C408.94597,173.118035 409.965939,173.478612 411.046905,173.71034 C411.955876,173.905111 412.863848,173.999001 413.75782,173.999001 C419.692635,173.999001 425.027468,169.871846 426.322427,163.841925 C425.027468,169.872845 419.692635,174 413.75582,174 M439.805006,151.966865 C439.815006,151.925913 439.825005,151.883962 439.835005,151.84301 C439.825005,151.883962 439.815006,151.925913 439.805006,151.966865" id="Fill-162" fill="#F2F2F2"></path>
    </g>
</svg>