<svg xmlns="http://www.w3.org/2000/svg" viewBox="0 0 287.66 206.65"><defs><style>.cls-1{opacity:0.75;}.cls-2,.cls-6{opacity:0.6;}.cls-3{fill:#eaeded;}.cls-4{isolation:isolate;}.cls-5,.cls-6{fill:#ef5261;}.cls-7{fill:#433e4d;}.cls-8{fill:#e34958;}.cls-9{fill:none;}.cls-10{fill:#49b3e6;}.cls-11{fill:#dcdcdc;}.cls-12{fill:#96d9f3;}.cls-13{fill:#fff;}.cls-14{fill:#276c5c;}.cls-15{fill:#e8e8ef;}.cls-16{fill:#1c84b4;}.cls-17{fill:#1b9eda;}.cls-18{fill:#109f86;}.cls-19{fill:#acc0b8;}.cls-20{fill:#f2f9fd;}</style></defs><title>Asset 1</title><g id="Layer_2" data-name="Layer 2"><g id="Layer_1-2" data-name="Layer 1"><g class="cls-1"><g class="cls-2"><path class="cls-3" d="M66.86,122.72c1.38.65,1.49,1.87.25,2.74L25.7,154.56A5.21,5.21,0,0,1,21,155L3.86,147c-1.38-.65-1.49-1.87-.25-2.74L45,115.11a5.26,5.26,0,0,1,4.74-.41Z"/></g><g class="cls-4"><path class="cls-5" d="M60,79.73l.28-.12.17-.07.16-.05.21,0,.12,0,.26,0h.43l.22,0H62a1.53,1.53,0,0,1,.27.11L45.47,71.67h0l-.21-.08h0l-.07,0-.1,0-.12,0h-.43l-.19,0h-.07l-.12,0-.11,0-.09,0-.17,0-.08,0-.09,0a1.59,1.59,0,0,0-.27.12l-.1,0,0,0a5.21,5.21,0,0,0-.49.29L3.42,99.6a6.43,6.43,0,0,0-.71.58c-.08.07-.14.15-.22.23s-.22.22-.32.34-.09.11-.14.17l-.12.15-.14.18c-.1.14-.2.28-.29.43l-.09.15,0,.08-.1.15-.2.37-.18.35v.06a2.08,2.08,0,0,0-.13.3l-.15.35-.11.32v0c0,.12-.08.25-.11.37s-.07.26-.1.39,0,.13,0,.19v.09a.58.58,0,0,0,0,.14c0,.16-.06.31-.08.47s0,.18,0,.28,0,.09,0,.14a.66.66,0,0,0,0,.14,5,5,0,0,0,0,.78l2.77,31a2.81,2.81,0,0,0,1.39,2.47l16.76,7.9a2.85,2.85,0,0,1-1.39-2.47l-2.76-31a5.75,5.75,0,0,1,0-.93s0-.09,0-.14a6.79,6.79,0,0,1,.12-.89.29.29,0,0,0,0-.09,8.78,8.78,0,0,1,.27-1v0a8.93,8.93,0,0,1,.39-1v0a9.75,9.75,0,0,1,.49-.9l0-.08c.17-.26.34-.51.53-.75l.12-.16c.15-.18.3-.35.46-.51a2.39,2.39,0,0,1,.22-.23,6.33,6.33,0,0,1,.7-.58L59.41,80.1a4.09,4.09,0,0,1,.48-.29Z"/><path class="cls-6" d="M59.41,80.1c2.1-1.47,4-.6,4.21,1.94l2.76,31A8.84,8.84,0,0,1,63,120.31L23.77,147.7c-2.1,1.47-4,.6-4.22-1.94l-2.76-31a8.8,8.8,0,0,1,3.39-7.25Z"/></g><g class="cls-4"><polygon class="cls-7" points="36.61 87.02 33.81 85.71 33.21 78.93 36 80.25 36.61 87.02"/><polygon class="cls-7" points="21.28 97.73 18.48 96.41 17.55 85.95 20.34 87.27 21.28 97.73"/><polygon class="cls-7" points="20.34 87.27 17.55 85.95 35.94 73.11 38.73 74.43 20.34 87.27"/><polygon class="cls-7" points="38.73 74.43 39.66 84.89 36.61 87.02 36 80.25 23.73 88.82 24.33 95.59 21.28 97.73 20.34 87.27 38.73 74.43"/></g><ellipse class="cls-3" cx="42.13" cy="113.86" rx="17.83" ry="10.33" transform="translate(-78.82 103.43) rotate(-64.77)"/><polygon class="cls-8" points="45.15 103.04 45.64 108.56 50.2 105.37 50.87 112.83 46.3 116.02 46.79 121.53 40.63 125.84 40.14 120.32 35.57 123.51 34.91 116.06 39.48 112.87 38.98 107.35 45.15 103.04"/><g class="cls-2"><path class="cls-3" d="M285.11,138.81c2.12,1,2.29,2.88.39,4.21l-63.63,44.72a8.08,8.08,0,0,1-7.28.62l-43.37-20.29c-2.12-1-2.29-2.87-.39-4.21l63.64-44.71a8,8,0,0,1,7.27-.63Z"/></g><g class="cls-2"><path class="cls-3" d="M250.81,118.75c3.72,1.73,4,5,.68,7.38L139.93,204.51a14,14,0,0,1-12.74,1.1L51.15,170c-3.71-1.73-4-5-.68-7.38L162,84.27a14.1,14.1,0,0,1,12.74-1.1Z"/></g><path class="cls-3" d="M252.2,97.73c3.81,1.78,4.11,5.16.7,7.56L138.66,185.55a14.41,14.41,0,0,1-13,1.13L47.74,150.25c-3.79-1.77-4.11-5.15-.69-7.55L161.28,62.43a14.46,14.46,0,0,1,13.06-1.13Z"/><path class="cls-9" d="M45.44,155.75l-.75-9.07c.11,1.38,1.14,2.68,3.05,3.57l.76,9.07C46.59,158.43,45.56,157.13,45.44,155.75Z"/><path class="cls-7" d="M255.26,101.57c0,.1,0,.2,0,.3a2,2,0,0,1,0,.24,2.74,2.74,0,0,1-.05.28,1.55,1.55,0,0,1-.08.23,1.82,1.82,0,0,1-.11.3l-.1.22c-.06.11-.12.23-.19.34a2.43,2.43,0,0,1-.14.2,4.58,4.58,0,0,1-.35.45l-.14.17-.26.25a2.73,2.73,0,0,1-.25.23,2.6,2.6,0,0,1-.31.25l-.33.26L138.66,185.55a10,10,0,0,1-1.23.73l-.35.16a7.92,7.92,0,0,1-.85.34,8.67,8.67,0,0,1-.9.31c-.36.11-.73.21-1.1.29a2.61,2.61,0,0,1-.27.06c-.51.1-1,.18-1.55.23l-.24,0c-.52,0-1,.05-1.54,0h-.23a15.12,15.12,0,0,1-1.51-.13l-.27,0a13.19,13.19,0,0,1-1.31-.28l-.23-.06a10.63,10.63,0,0,1-1.47-.54L47.74,150.25c-1.91-.89-2.94-2.19-3.05-3.57l.75,9.07c.12,1.38,1.15,2.68,3.06,3.57l77.87,36.43a10,10,0,0,0,1.39.52l.07,0,.23.06c.28.07.56.15.85.21l.47.07.27,0,.25,0c.3,0,.61.06.92.08h.91c.3,0,.61,0,.91,0l.28,0,.25,0,.41,0c.34,0,.68-.1,1-.16l.11,0a2.61,2.61,0,0,0,.27-.06l.78-.17.33-.12c.31-.09.6-.19.9-.31l.48-.16.36-.18.35-.16a9.4,9.4,0,0,0,1.24-.73l114.24-80.26.1-.08.23-.18.31-.25a2.61,2.61,0,0,0,.24-.23l.27-.25.05-.06.09-.11c.13-.15.24-.3.35-.45a.87.87,0,0,1,.08-.1.93.93,0,0,1,.05-.1,2.9,2.9,0,0,0,.19-.34,1.09,1.09,0,0,0,.08-.15l0-.07.11-.3a1.15,1.15,0,0,0,.06-.17.13.13,0,0,0,0-.06,2.8,2.8,0,0,0,.06-.28c0-.07,0-.13,0-.19v0c0-.1,0-.2,0-.3a1.21,1.21,0,0,0,0-.19v-.08l-.76-9.07A2.43,2.43,0,0,1,255.26,101.57Z"/><path class="cls-10" d="M241.37,100a1.29,1.29,0,0,1,.21,2.43l-95.8,67.32a4.69,4.69,0,0,1-4.2.37L71.44,137.32c-1.23-.57-1.33-1.66-.23-2.43L167,67.57a4.65,4.65,0,0,1,4.2-.36Z"/><path class="cls-11" d="M104,161c1.34.63,1.45,1.83.24,2.67l-1.59,1.12a5.08,5.08,0,0,1-4.61.4l-10.67-5c-1.34-.63-1.45-1.83-.25-2.67l1.59-1.12a5.1,5.1,0,0,1,4.62-.4Z"/><path class="cls-12" d="M205.66,23.79A7,7,0,0,1,209.31,29L216,109c.17,2-1.19,3-3,2.1L162.78,87.59a7.05,7.05,0,0,1-3.66-5.23L152.46,2.42c-.17-2,1.19-3,3-2.1Z"/><path class="cls-13" d="M186.43,44.21A15.58,15.58,0,0,0,187.2,48c.11.52.3,1.34.52,2.31a4.24,4.24,0,0,1-3.67-.2,15.42,15.42,0,0,1-4.61-3.84c.13-1.32.18-2.27.19-2.32l0,0a11.68,11.68,0,0,0,.08-2.62,10,10,0,0,0,1.47,1.5,9.34,9.34,0,0,0,2.07,1.37,3.68,3.68,0,0,0,1.77.42A3.81,3.81,0,0,0,186.43,44.21Z"/><path class="cls-14" d="M167,48.64c-.05,1.06-.1,2.2-.14,3.24C166.9,50.84,166.94,49.71,167,48.64Z"/><g class="cls-4"><path class="cls-15" d="M178.76,43.43l.82.51a14.9,14.9,0,0,1-.14,2.35c0,.36-.07.74-.11,1.13-.19,1.73,2.79,14,3.15,15.48l0,.14-15.75-7.37c0-.09.05-1.71.13-3.79,0-1,.09-2.18.14-3.24a35.9,35.9,0,0,1,.33-4.12c.27-.9,8.15,0,8.56,0Z"/><path class="cls-13" d="M174.22,26.76a2.08,2.08,0,0,1,.62.51c.12.32.19.5.19.51,0,.17.73,3.42.95,4a.36.36,0,0,0,.09.14c.1,0,.18-.28.23-.55.13,1.1.19,2.18-.3,2l-.07,0a1.22,1.22,0,0,1-.27-.2c-1.25-1.14-3.47-6.13-2.06-6.5A.88.88,0,0,1,174.22,26.76Z"/><path class="cls-13" d="M189.81,34.06a2.06,2.06,0,0,1,.66.53c1.59,1.78.06,5-1.09,5a.55.55,0,0,1-.26-.06.57.57,0,0,1-.22-.16,2.58,2.58,0,0,1-.44-1.26.68.68,0,0,0,.12.12h0c.25.12.11-1.72.34-3a7.7,7.7,0,0,0,.19-1.21A.74.74,0,0,1,189.81,34.06Z"/><path class="cls-13" d="M185,26a1.44,1.44,0,0,1,.39.24,8,8,0,0,1,2.08,3.86,58.13,58.13,0,0,1,.56,6.72,3.19,3.19,0,0,0,.44,1.3,2.58,2.58,0,0,0,.44,1.26,20.23,20.23,0,0,1-.37,2.69,3.76,3.76,0,0,1-2.1,2.12,3.81,3.81,0,0,1-1.46.4,3.68,3.68,0,0,1-1.77-.42,9.34,9.34,0,0,1-2.07-1.37,10,10,0,0,1-1.47-1.5,18,18,0,0,1-2.81-4.7c-.17-.52-.5-1.69-.85-3.2.49.14.43-.94.3-2,0-.21,0-.38,0-.39s-.11-1.29-.16-2-1.05-4.06-.56-5.66c.31-1,.91-1.21,1.9-.75a11.57,11.57,0,0,1,2,1.33,7.45,7.45,0,0,0,1.36.82,12.18,12.18,0,0,0,2.31.76A10.72,10.72,0,0,1,185,26Z"/><path class="cls-16" d="M180.54,18.15a22,22,0,0,1,6.67,4.73c1,1.52,1.07,3.39,1.69,4.55.5.92.45,4.56.23,6.61a7.7,7.7,0,0,1-.19,1.21c-.23,1.3-.09,3.14-.34,3a.58.58,0,0,1-.14-.13,3.19,3.19,0,0,1-.44-1.3,58.13,58.13,0,0,0-.56-6.72,8,8,0,0,0-2.08-3.86A1.44,1.44,0,0,0,185,26a10.72,10.72,0,0,0-1.77-.52,12.18,12.18,0,0,1-2.31-.76,7.45,7.45,0,0,1-1.36-.82,11.57,11.57,0,0,0-2-1.33c-1-.46-1.59-.28-1.9.75-.49,1.6.5,4.95.56,5.66s.16,1.93.16,2,0,.18,0,.39-.13.59-.23.55a.36.36,0,0,1-.09-.14c-.22-.59-.91-3.84-.95-4,0,0-.07-.19-.19-.51a15.11,15.11,0,0,1-.92-6.47c.29-.73.33-2.44,1.19-3.68C175.58,16.46,177.88,16.9,180.54,18.15Z"/></g><path class="cls-16" d="M188,51.47c.5,2.05-.59,12.45-.72,13.68l-1.85-.87-1.22-.57-1.73-.81c-.36-1.46-3.34-13.75-3.15-15.48,0-.39.08-.77.11-1.13a15.42,15.42,0,0,0,4.61,3.84,4.24,4.24,0,0,0,3.67.2C187.81,50.69,187.9,51.08,188,51.47Z"/><path class="cls-15" d="M187.92,47.71l3.26,4c.44.35,8.81,7.08,9.26,8.31s2.48,12.07,2.58,12.64l-15.75-7.37v-.11c.13-1.23,1.22-11.63.72-13.68-.1-.39-.19-.78-.28-1.14-.22-1-.41-1.79-.52-2.31-.08-.36-.12-.56-.12-.57Z"/><g class="cls-4"><polygon class="cls-10" points="177.43 83.83 177.6 85.88 169.64 82.16 169.47 80.11 177.43 83.83"/><polygon class="cls-10" points="185.59 79.31 185.76 81.36 168.92 73.48 168.75 71.43 185.59 79.31"/><polygon class="cls-10" points="196.42 76.42 196.59 78.47 168.23 65.21 168.06 63.16 196.42 76.42"/></g><polygon class="cls-10" points="181.22 80.74 181.39 82.8 169.22 77.11 169.05 75.05 181.22 80.74"/><polygon class="cls-10" points="196.76 80.52 196.93 82.57 168.57 69.3 168.4 67.25 196.76 80.52"/><polygon class="cls-10" points="187.53 88.55 187.7 90.6 179.74 86.88 179.57 84.83 187.53 88.55"/><polygon class="cls-10" points="197.63 93.28 197.8 95.33 189.84 91.61 189.67 89.56 197.63 93.28"/><path class="cls-13" d="M134.57,131.49c6.8,3.18,7.36,9.24,1.24,13.54s-16.57,5.2-23.37,2-7.36-9.23-1.25-13.53S127.77,128.31,134.57,131.49Z"/><g class="cls-1"><polygon class="cls-7" points="133.15 137.03 133.44 140.21 116.28 141.69 115.75 136.09 121.25 135.61 121.48 138.04 133.15 137.03"/></g><path class="cls-17" d="M180,114.81a1,1,0,0,1,.17,1.84l-22.38,15.73a3.54,3.54,0,0,1-3.18.27L129.76,121a1,1,0,0,1-.17-1.84L152,103.44a3.54,3.54,0,0,1,3.18-.28Z"/><path class="cls-17" d="M187.2,119.25a3.54,3.54,0,0,0-3.18.27l-22.38,15.73c-.83.58-.75,1.4.17,1.84l18.3,8.56,25.39-17.84Z"/><path class="cls-17" d="M146.72,98.58l-14.31-6.69L107,109.73l14.31,6.69a3.52,3.52,0,0,0,3.17-.27l22.38-15.73A1,1,0,0,0,146.72,98.58Z"/><path class="cls-12" d="M180.69,110.19a1,1,0,0,1,.17,1.92l-23.3,16.37a3.66,3.66,0,0,1-3.3.28l-25.92-12.12a1,1,0,0,1-.18-1.91l23.3-16.37a3.66,3.66,0,0,1,3.31-.29Z"/><path class="cls-5" d="M165.22,83.09a.41.41,0,0,1-.05.09l-.34.47-.09.12-.3.35-.15.16-.19.2-.18.18-.21.19-.2.18-.23.2-.22.17-.24.19-.32.23-.63.42-.19.11-.51.3-.18.1c-.22.12-.45.24-.69.35l-.12.06-.61.27-.25.11-.34.14-.29.11-.35.12-.3.1-.36.12-.3.09-.37.11-.28.08-.8.2-.12,0c-.24.06-.47.11-.71.15l-.27,0-.46.08-.29,0-.48.06-.27,0-.42,0-.3,0-.45,0h-.26l-.42,0-.29,0h-1.4q-.34,0-.69,0H149l-.61,0-.24,0-.46-.05-.23,0L147,89l-.28,0-.44-.08-.25,0c-.24,0-.47-.09-.7-.15l-.13,0-.78-.21-.31-.09-.25-.08-.35-.12-.23-.08-.37-.15-.18-.08a5.38,5.38,0,0,1-.55-.24A10,10,0,0,1,139,85.35l-1.31.11,2.07,24.79c.18,2.15,1.78,4.17,4.76,5.57l.54.24.19.07.37.15.23.08.34.12.25.08.24.07.08,0,.78.22.12,0,.7.16.12,0,.13,0,.45.07.27,0,.5.07.18,0h.05l.46,0,.24,0,.6,0h.1l.7,0h1.69l.41,0h0l.23,0,.45,0,.29,0,.42,0h.08l.19,0,.49-.06.28,0,.46-.08.17,0,.11,0,.71-.14.11,0,.8-.2.08,0,.21-.06.37-.1.3-.1.36-.11.29-.1L161,116l.29-.11.34-.14.15-.06.11,0,.6-.27.13-.06.69-.35.18-.1.51-.3.18-.11c.22-.14.43-.27.64-.42l.16-.12.15-.11.25-.19.21-.17.23-.19.2-.18.21-.2.19-.18.19-.2a.6.6,0,0,1,.08-.08l.06-.08c.11-.12.21-.23.3-.35l.1-.12c.12-.16.23-.31.33-.47l0,0,.06-.11a2.29,2.29,0,0,0,.18-.29l.09-.17.14-.26,0-.08a1.17,1.17,0,0,0,.05-.11l.09-.22c0-.07,0-.13.07-.19a2,2,0,0,0,.07-.23.38.38,0,0,0,0-.1l0-.09a1.6,1.6,0,0,1,.05-.21,1.42,1.42,0,0,1,0-.2l0-.21a.5.5,0,0,1,0-.12v-.08c0-.07,0-.14,0-.21a1.34,1.34,0,0,1,0-.2c0-.07,0-.14,0-.21V108s0-.09,0-.13L166.46,83Z"/><path class="cls-3" d="M138,89.77c.18,2.15,1.78,4.18,4.76,5.57,4.16,2,9.9,2.14,14.79.78l1.06,12.71c-4.89,1.36-10.63,1.17-14.79-.78-3-1.39-4.58-3.42-4.76-5.57L138,89.77"/><path class="cls-18" d="M161.42,74c5.91,2.77,6.4,8,1.08,11.78s-14.43,4.52-20.35,1.75-6.4-8-1.08-11.77S155.5,71.27,161.42,74Z"/><path class="cls-19" d="M165.91,76.71a1.62,1.62,0,0,1,0,.22c0,.06,0,.13,0,.19a1.64,1.64,0,0,1,0,.22,1.23,1.23,0,0,1,0,.19l0,.22c0,.06,0,.13,0,.19s0,.14-.05.22l-.06.19a1.87,1.87,0,0,1-.07.22,1.07,1.07,0,0,1-.07.19l-.09.23-.08.18-.14.27a1.29,1.29,0,0,1-.09.16c-.05.1-.11.2-.17.3a.57.57,0,0,0-.08.13c-.11.15-.22.31-.34.46l-.1.12c-.09.12-.19.24-.29.35l-.15.16-.19.2-.18.19-.21.19-.2.18-.23.19-.22.18-.25.18-.31.24-.63.41-.19.12-.51.29-.18.1L160,84l-.13.06-.6.27-.25.11-.34.13-.29.11-.35.13-.3.1-.36.12-.3.09-.37.11-.28.08-.81.2-.11,0-.71.15-.27.05-.46.08-.29,0-.48.07-.28,0-.42,0-.29,0-.45,0-.27,0-.41,0h-1.69l-.69,0h-.1l-.61,0-.24,0-.46,0-.23,0-.5-.07-.27,0L146,85.7l-.26,0L145,85.5l-.13,0c-.26-.06-.52-.14-.78-.21l-.32-.1-.24-.08c-.12,0-.23-.08-.35-.12l-.23-.08-.37-.14-.19-.08c-.18-.08-.36-.15-.54-.24-3-1.39-4.58-3.42-4.76-5.57l.52,6.9c.18,2.15,1.78,4.18,4.75,5.57l.55.24.18.07.38.15.22.08.35.12.25.08.24.08.07,0,.79.21.12,0,.7.15.11,0,.14,0,.45.08.27,0,.49.07.19,0h.05l.45.05.25,0,.59,0h.11l.7,0h.16c.18,0,.36,0,.53,0h1l.41,0h0l.24,0,.44,0,.3,0,.42,0h.08l.19,0,.48-.07.29,0,.46-.08.16,0,.11,0,.71-.15.12,0,.8-.2.08,0,.2-.06.38-.11.29-.09.36-.12.3-.1.35-.13.29-.11.34-.14.15-.06.1,0,.61-.28.13-.05.69-.36.17-.1c.18-.09.35-.19.51-.29l.19-.12c.22-.13.43-.27.63-.41l.17-.12.15-.12.25-.18.21-.18.23-.19.2-.18.21-.2.18-.18.2-.2.07-.08a.27.27,0,0,0,.07-.08l.3-.35.09-.12a5.09,5.09,0,0,0,.34-.47v0a.61.61,0,0,0,.07-.1l.18-.3.09-.16.13-.27,0-.08a.42.42,0,0,0,0-.1,2.29,2.29,0,0,0,.1-.23,1.46,1.46,0,0,1,.07-.19l.07-.22,0-.11s0-.06,0-.09a1.6,1.6,0,0,0,.05-.21,1.42,1.42,0,0,0,0-.2,1.55,1.55,0,0,0,0-.21s0-.08,0-.12a.17.17,0,0,0,0-.07,1.7,1.7,0,0,0,0-.22,1.28,1.28,0,0,0,0-.19v-.35a.53.53,0,0,1,0-.13l-.52-6.89A2.09,2.09,0,0,1,165.91,76.71Z"/><path class="cls-20" d="M161.14,70.89c5.92,2.77,6.41,8,1.09,11.78s-14.43,4.52-20.35,1.75-6.4-8-1.08-11.78S155.23,68.12,161.14,70.89Z"/><path class="cls-10" d="M286,132.46l-39.06-18.27L175.5,163.33,215.43,182a8,8,0,0,0,7.27-.63l63.64-44.71C288.24,135.33,288.07,133.45,286,132.46Z"/><path class="cls-17" d="M254.93,131c5,2.36,5.46,6.85.93,10s-12.3,3.86-17.34,1.5-5.46-6.85-.92-10S249.89,128.67,254.93,131Z"/><path class="cls-3" d="M248.29,117.36l-6,.48h0l.95,10.14h0l5.9-.47a5.09,5.09,0,1,0-.8-10.15Z"/><path class="cls-5" d="M231.89,123.77a5.09,5.09,0,0,0,5.48,4.67l5.82-.46a9,9,0,0,0-.95-10.14l-5.68.45A5.09,5.09,0,0,0,231.89,123.77Z"/><path class="cls-17" d="M232.14,146.57c5.05,2.35,5.46,6.85.93,10s-12.3,3.86-17.34,1.5-5.45-6.86-.92-10S227.1,144.21,232.14,146.57Z"/><path class="cls-3" d="M225.5,132.89l-6.05.48h0l1,10.15h0l5.9-.47a5.1,5.1,0,0,0-.8-10.16Z"/><path class="cls-5" d="M209.1,139.3a5.1,5.1,0,0,0,5.48,4.68l5.82-.46a9,9,0,0,0-1-10.15l-5.67.45A5.1,5.1,0,0,0,209.1,139.3Z"/><polygon class="cls-12" points="209 167.19 206.64 168.85 191.96 161.98 194.32 160.32 209 167.19"/><polygon class="cls-12" points="221.49 168.6 219.13 170.26 195.75 159.32 198.1 157.67 221.49 168.6"/><path class="cls-12" d="M253.9,47.62l2.16,26a1.33,1.33,0,0,1-1.9,1.31L237.33,67a1.33,1.33,0,0,0-1.72.53l-.32.53h0A1.32,1.32,0,0,1,233,68l-.65-1.3-1.07-2.2a1.33,1.33,0,0,0-.64-.62l-14.2-6.59a1.34,1.34,0,0,1-.77-1.1l-2.16-26a1.33,1.33,0,0,1,1.89-1.32l37.78,17.67A1.34,1.34,0,0,1,253.9,47.62Z"/><path class="cls-13" d="M244.53,59.93a5,5,0,0,1-2.58-3.7c-.12-1.43.84-2.09,2.15-1.48a5,5,0,0,1,2.59,3.7C246.81,59.88,245.84,60.55,244.53,59.93Z"/><path class="cls-13" d="M233.66,54.85a5,5,0,0,1-2.58-3.7c-.12-1.43.84-2.1,2.15-1.48a5,5,0,0,1,2.59,3.7C235.93,54.8,235,55.46,233.66,54.85Z"/><path class="cls-13" d="M222.79,49.77a5,5,0,0,1-2.58-3.7c-.12-1.44.84-2.1,2.15-1.49a5,5,0,0,1,2.58,3.7C225.06,49.71,224.1,50.38,222.79,49.77Z"/><path class="cls-12" d="M69,77.62l2.34,26.16a1.35,1.35,0,0,0,2.13,1L108.94,80a1.36,1.36,0,0,0,.57-1.23l-2.33-26.16a1.36,1.36,0,0,0-2.13-1L69.61,76.39A1.36,1.36,0,0,0,69,77.62Z"/><path class="cls-10" d="M74.87,79.76l2.33,26.15a1.36,1.36,0,0,0,2.14,1l35.44-24.75a1.39,1.39,0,0,0,.57-1.24L113,54.76a1.36,1.36,0,0,0-2.13-1L75.45,78.52A1.37,1.37,0,0,0,74.87,79.76Z"/><path class="cls-12" d="M114.29,69,110.1,72a.2.2,0,0,1-.26,0l-3-3.79c-.38-.48-1-.48-1.66,0a1.49,1.49,0,0,0-.2.15,4.3,4.3,0,0,0-1.39,2.61l-1.35,10.46a.58.58,0,0,1-.26.42c-.1.07-.23.11-.28-.08l-.54-1.91c-.25-.89-1-1.12-1.85-.56a4.12,4.12,0,0,0-1.64,2.85.59.59,0,0,1-.24.43c-.1.07-.22.11-.29,0l-2.25-4.77c-.33-.7-1-.81-1.8-.28A4.1,4.1,0,0,0,91.49,80L90,88.84a.59.59,0,0,1-.25.41c-.1.06-.22.09-.28-.07L88.64,87c-.28-.79-1-1-1.8-.45a4.23,4.23,0,0,0-1.63,2.68l-.27,1.65a.66.66,0,0,1-.22.39c-.09.06-.2.11-.28,0L84,90.74c-.37-.48-1-.49-1.67,0L76.23,95l.16,1.83,6.11-4.26c.1-.07.2-.07.25,0l.44.56c.38.49,1,.5,1.67,0L85,93a4.27,4.27,0,0,0,1.42-2.53l.26-1.65a.64.64,0,0,1,.24-.41c.11-.06.23-.11.29.06L88,90.67c.29.79,1,1,1.79.46a4.23,4.23,0,0,0,1.64-2.66L93,79.67a.63.63,0,0,1,.24-.4c.07,0,.2-.11.27,0l2.26,4.77c.34.7,1.05.8,1.82.26a4.16,4.16,0,0,0,1.58-2.81.61.61,0,0,1,.26-.44c.1-.06.22-.1.28.09l.54,1.9c.25.89,1,1.12,1.83.58a4.19,4.19,0,0,0,1.66-2.81l1.35-10.46a.65.65,0,0,1,.22-.4c.1-.08.21-.11.28,0l3,3.8c.38.47,1,.48,1.66,0l4.19-2.92Z"/><path class="cls-5" d="M124.27,26.28l0-.71c0-.26,0-.53.06-.79l.06-.54c0-.17,0-.34.08-.51s.08-.47.13-.71.05-.27.08-.41.13-.53.2-.8l.09-.33q.15-.56.33-1.11a.5.5,0,0,0,0-.13c.11-.33.24-.65.36-1,0-.1.08-.2.13-.3.12-.31.26-.62.39-.92l.08-.17c.17-.36.35-.71.53-1.05a2.91,2.91,0,0,1,.17-.3c.13-.25.27-.5.42-.74l.24-.39q.18-.3.39-.6c.11-.16.22-.33.34-.49s.22-.3.33-.45.39-.51.59-.75l.38-.45.3-.33c.17-.19.34-.36.51-.53l.31-.31.57-.51.27-.24c.29-.24.58-.46.88-.67s.57-.37.85-.54l.23-.12c.27-.15.54-.29.81-.41l0,0a6.46,6.46,0,0,1,.69-.26l.39-.12.51-.13.29-.05c.21,0,.42-.06.62-.07h.15a5.7,5.7,0,0,1,.72,0l.18,0a5.3,5.3,0,0,1,.55.1l.17,0a3.31,3.31,0,0,1,.66.25l-2.77-1.31-.06,0a3.84,3.84,0,0,0-.51-.19l-.09,0-.17,0-.26-.07-.29,0-.18,0L135,7l-.6,0h-.18l-.46,0-.16,0-.29.06-.27,0-.24.07-.39.12-.21.07a4.78,4.78,0,0,0-.48.19l-.05,0-.58.28-.23.13-.23.13c-.28.16-.56.34-.85.54a9.16,9.16,0,0,0-.87.67,3.22,3.22,0,0,0-.28.24l-.57.51-.31.3-.51.53-.3.34a1.9,1.9,0,0,0-.19.21c-.07.07-.13.16-.19.23l-.59.75-.19.24-.14.21-.34.5-.22.32a2.61,2.61,0,0,0-.17.28q-.12.18-.24.39l-.17.26-.25.47c-.06.1-.12.2-.17.3l-.07.12c-.15.29-.29.58-.43.87l0,.06a1.42,1.42,0,0,1-.08.18c-.09.2-.19.41-.28.62s-.07.2-.11.29L123,18c0,.09-.07.17-.1.26-.09.24-.18.48-.26.72a1.12,1.12,0,0,1,0,.13v0c-.1.3-.19.6-.28.91a.94.94,0,0,0,0,.16l-.09.33L122,21c0,.12,0,.24-.07.36a2.71,2.71,0,0,0-.09.41l-.06.25c0,.15,0,.31-.07.46s0,.34-.08.5,0,.12,0,.18,0,.24,0,.37-.06.52-.07.78a1.8,1.8,0,0,0,0,.22c0,.17,0,.33,0,.49v.35c0,.36,0,.72,0,1.08a8.49,8.49,0,0,0,1.58,4.53,5,5,0,0,0,1.8,1.47l2.77,1.3c-1.84-.86-3.11-2.93-3.38-6,0-.35,0-.71,0-1.08Z"/><ellipse class="cls-6" cx="133.57" cy="21.24" rx="13.77" ry="7.98" transform="translate(57.41 133.01) rotate(-64.77)"/><path class="cls-13" d="M133.73,16.53l1.92-1.35.7,7.8-.79.54.11,1.2-1.14.8.19,2.13-.47.93-.24-2.7-1.15.8-.1-1.19L132,26l-.7-7.8,1.93-1.34-.1-1.07-1.14.8-.12-1.32,2.81-2,.11,1.32-1.14.8Zm1.64,1.9-.19-2.15-3.3,2.3.19,2.16,3.3-2.31"/><path class="cls-5" d="M127.13,59.39c0-.23,0-.47,0-.7s0-.53.06-.79l.06-.54c0-.17,0-.34.08-.51l.12-.71.09-.41c.06-.27.13-.54.2-.8s0-.22.08-.33c.11-.37.22-.74.34-1.11,0,0,0-.09.05-.13.11-.33.23-.65.36-1l.12-.3c.13-.31.26-.62.4-.92l.08-.18c.17-.35.34-.7.53-1l.16-.3.42-.73.24-.39.39-.6c.11-.17.23-.33.34-.49a5.3,5.3,0,0,1,.34-.45c.19-.26.38-.51.59-.75l.37-.45c.1-.11.2-.23.31-.34s.33-.35.5-.52l.31-.31c.19-.18.38-.35.58-.51l.27-.24c.29-.24.58-.46.88-.67s.57-.38.85-.54l.22-.13c.28-.15.55-.29.81-.4l.05,0a5.47,5.47,0,0,1,.7-.26l.39-.12.51-.13.29,0a4.53,4.53,0,0,1,.62-.07H140a4.41,4.41,0,0,1,.73,0l.17,0,.55.11.17,0a4.12,4.12,0,0,1,.67.24l-2.77-1.3-.06,0a3.84,3.84,0,0,0-.51-.19l-.1,0-.17,0-.26-.07-.29,0-.17,0h-.1a5.72,5.72,0,0,0-.59,0h0l-.14,0a3.55,3.55,0,0,0-.46,0l-.16,0-.29.06-.27,0-.24.07-.39.12-.21.06-.49.2-.05,0c-.19.08-.38.18-.58.28l-.23.13-.22.12c-.28.17-.56.34-.85.54s-.59.44-.88.67l-.27.24-.58.52-.31.3c-.17.17-.34.35-.5.53l-.31.33a1.9,1.9,0,0,1-.19.21l-.18.24c-.2.25-.4.49-.59.75l-.19.24-.15.21-.34.5-.22.32-.17.27-.24.39-.16.27-.26.47-.16.3-.07.12c-.15.29-.29.58-.43.87l0,.06-.08.18c-.09.2-.19.41-.28.62l-.12.29-.12.31-.11.26c-.09.24-.17.48-.25.72,0,0,0,.08,0,.13v0c-.1.3-.2.6-.28.9,0,.06,0,.12,0,.17s0,.22-.08.33-.09.3-.12.45,0,.24-.08.35l-.09.41a2.38,2.38,0,0,1,0,.26c0,.15,0,.3-.07.46s-.06.33-.08.5l0,.18,0,.36c0,.27,0,.53-.06.79a1.64,1.64,0,0,0,0,.22c0,.16,0,.33,0,.49v.35c0,.36,0,.72,0,1.08A8.54,8.54,0,0,0,126,64a4.87,4.87,0,0,0,1.81,1.47l2.76,1.31c-1.83-.87-3.1-2.93-3.37-6,0-.35-.05-.71-.05-1.08Z"/><ellipse class="cls-6" cx="136.43" cy="54.36" rx="13.77" ry="7.98" transform="translate(29.1 154.6) rotate(-64.77)"/><path class="cls-13" d="M136.28,50c1.52-1.07,2.93-.86,3.63.35l-6.63,7.85A4.15,4.15,0,0,1,133,57,8.5,8.5,0,0,1,136.28,50Z"/><path class="cls-13" d="M140.22,51.17a4.73,4.73,0,0,1,.13.71,8.53,8.53,0,0,1-3.28,7c-1.36,1-2.62.88-3.37,0Z"/></g></g></g></svg>